<?xml version="1.0" encoding="UTF-8"?>
<svg id="Layer_1" xmlns="http://www.w3.org/2000/svg" version="1.1" viewBox="0 0 1920 1080">
  <!-- Generator: Adobe Illustrator 29.2.1, SVG Export Plug-In . SVG Version: 2.1.0 Build 116)  -->
  <defs>
    <style>
      .st0 {
        fill: #fff;
      }

      .st1 {
        fill: #005151;
      }
    </style>
  </defs>
  <path class="st1" d="M1415.37,325.91h-155.36c-75.34,0-136.41,61.07-136.41,136.41v155.36c0,75.34,61.07,136.41,136.41,136.41h291.77v-291.77c0-75.34-61.07-136.41-136.41-136.41Z"/>
  <g>
    <polygon class="st0" points="1314.84 648.39 1361.27 634.86 1361.27 445.62 1314.84 431.98 1314.84 648.39"/>
    <polygon class="st0" points="1407.28 493.15 1407.28 621.49 1453.53 607.98 1453.53 506.74 1407.28 493.15"/>
    <polygon class="st0" points="1222.79 462.92 1222.79 648.39 1269.04 634.84 1269.04 476.5 1222.79 462.92"/>
  </g>
  <g>
    <path class="st1" d="M829.43,609.81l11.6-1.33c10.27-1.93,27.92-3.85,35.95-24.39,2.57,1.93,5.78,4.81,7.38,6.42l1.28-.32,2.89-7.06c2.25-4.49-.64-7.38-5.46-11.23,3.21-9.63,4.17-27.6-5.13-29.53-11.55-2.57-28.57,22.47-14.76,32.42,1.6.96,5.78,3.85,8.35,5.78-7.7,8.99-31.17,23.16-42.09,29.26ZM863.81,559.7c6.74-8.02,16.37-7.06,13.48,8.67-8.99-5.14-13.48-8.67-13.48-8.67Z"/>
    <path class="st1" d="M710.32,453.44c0,13.52-23.71,40.08-57.72,40.08l4.42,3.12c9.74,6.74,18.58,10.21,26.29,10.76,20.97,1.49,33.63-18.63,33.63-53.27s-21.66-61.2-21.66-61.2l-14.56,20.6c11.85,11.5,29.6,29.81,29.6,39.91Z"/>
    <path class="st1" d="M488.66,488.12c-.7,24.04,15.33,51.21,52.61,51.21,12.7,0,23.71-4.61,32.87-10.36,13.94-8.75,23.01-22.4,23.01-22.4-12.86,2.67-32.53,3.77-47.52,3.79-28.05.05-53.65-2.76-53.65-20.69s24.43-35.4,58.92-47.59c0,26.13,5.21,47.59,47.02,47.59h15.09c41.81,0,48.77-20.9,48.77-44.94,0-27.94-15.63-51.94-15.63-51.94l-14.62,20.59c12.89,12.19,22.24,27.87,22.24,34.84,0,5.92-5.58,11.85-48.43,11.85h-5.27c-42.85,0-42.91-5.92-42.91-19.86l17.07-5.23,4.97-29.18c-4.18,1.39-12.29,4.09-16.82,5.83-7.66,2.79-14.98,5.57-23.34,7.32-20.21,4.18-43.9-4.88-43.9-12.89,0-4.18,12.19-16.03,33.1-16.03,14.63,0,27.17,6.27,31.36,9.06,0,0-5.14-34.84-35.19-34.84-21.6,0-36.23,20.55-36.23,41.46,0,16.72,6.27,29.61,18.81,36.58-15.68,14.98-23.02,30.15-22.32,45.83Z"/>
    <polygon class="st1" points="869.12 362.55 850.96 347.22 836.38 364.32 854.9 379.66 869.12 362.55"/>
    <path class="st1" d="M774.08,489.67c21.25,0,23.52-9.57,28.74-21.77,2.09,14.28,10.8,21.95,27.52,21.95,8.71,0,18.28-4.03,23.5-12.74,4.18,6.62,11.34,12.74,20.05,12.74,9.75,0,16.03-3.48,21.6-12.19,5.23,7.32,13.24,12.19,26.13,12.19,17.77,0,28.57-12.54,33.79-24.74,0,4.53,1.04,8.01,2.44,9.41,8.71,6.62,26.48,15.86,44.59,19.34,9.76-21.25,11.15-32.93,11.15-41.64,0-20.55-8.71-37.28-20.21-38.67-14.63-1.39-27.17,13.94-39.02,31.01-4.53,6.62-14.75,14.98-31.82,14.98-4.88,0-15.97-1.53-19.1-4.67l1.86-29.17-6.33,3.88c-2.09,20.9-2.41,29.96-19.83,29.96-8.01,0-12.06-.89-17.29-4.03l2.89-29.23-5.94,3.59c-1.57,7.32-3.78,14.49-6.45,20.67-5.45,12.63-43.29,10.4-43.27,3.76l8.22-23.16-4.08.7s-3.93,9.54-14.44,17.42c-7.4,5.55-9.52,10.09-24.36,10.09-13.59,0-24.04-2.44-24.04-17.07l-.35-96.41-19.16,27.08c4.18,20.9,7.32,40.06,7.32,72.47,0,36.23,14.98,44.25,35.88,44.25ZM987.81,439.34c10.45,3.14,14.63,14.98,14.63,24.04-16.03-2.79-32.05-10.45-36.93-14.63,5.23-5.57,12.54-12.19,22.3-9.41Z"/>
    <polygon class="st1" points="867.34 372.36 855.37 386.68 838.94 373.21 824.72 390.33 843.24 405.67 855.21 391.35 871.64 404.82 886.21 388 867.34 372.36"/>
    <path class="st1" d="M559.03,582.95l-11.66,27.42c15.9,9.02,44.06,25.09,44.31,35.54.14,5.57-8.47,9.62-29.03,10.12-18.81.46-32.45-1.15-29.36-17.75h0c-2.31,5.28-3.82,14.73-3.66,21,.4,16.37,1.29,26.83,33.42,26.67,21.95-.11,36.58-12.78,35.9-40.64-.63-25.77-18.98-47.2-39.91-62.36Z"/>
    <path class="st1" d="M1013.18,628.61l-8.24-100.32-19.16,27.22c2.75,24.26,7.95,71.01,8.99,99.92.81,22.48-4.29,42.73-4.29,42.73,21.71-32.15,22.92-58.46,22.7-69.55Z"/>
    <polygon class="st1" points="410.17 542.19 398 556.26 382.6 542.63 368.22 559.04 385.97 574.53 397.8 560.44 413.54 574.09 427.58 557.67 410.17 542.19"/>
    <polygon class="st1" points="648.38 506.32 636.19 520.38 620.8 506.73 606.41 523.13 624.15 538.63 636.34 524.57 651.72 538.22 665.77 521.8 648.38 506.32"/>
    <polygon class="st1" points="487.42 702.75 475.23 716.81 459.84 703.17 445.45 719.57 463.19 735.07 475.38 721.01 490.77 734.65 504.81 718.24 487.42 702.75"/>
    <path class="st1" d="M486.43,609.97c12.89,12.19,20.09,27.87,20.09,34.49,0,6.27-8.01,11.85-40.76,11.85-16.03,0-24.04-6.97-24.04-21.6l-.7-67.24h-3.83c-6.97,26.83-17.42,28.92-28.92,35.54-11.5,6.62-22.3,12.89-27.87,26.83l-12.19,27.87,31.01,6.27c11.85,2.09,25.43-.7,29.96-13.59l1.39-4.18c.35,22.3,10.45,39.72,40.76,39.72,29.26-.35,43.2-20.9,43.2-44.94,0-19.86-5.23-35.23-14.29-51.61l-13.82,20.6ZM415.25,637.84l-24.74-4.88c12.89-5.23,31.7-14.28,39.37-30.31l.7,33.1c-1.74,2.09-6.27,4.18-15.33,2.09Z"/>
    <path class="st1" d="M973.07,569.56c-8.91-10.7-14.9-23.8-17-40.1l-20.12,28.08c10.1,32.51,15.53,64.13,19.02,94.34-3.66,2.72-14.79,4.21-24.88,3.95h0c-5.51-.08-12.42-2.3-14.82-4.7l1.86-29.17-6.33,3.88c-2.09,20.9-2.41,29.96-19.83,29.96-8.01,0-12.06-.89-17.29-4.03l2.89-29.23-5.94,3.59c-1.57,7.32-3.78,14.49-6.45,20.67-5.45,12.63-43.29,10.4-43.27,3.76l8.22-23.16-4.08.7s-3.93,9.54-14.44,17.42c-6.92,5.19-16.74,9.6-30.12,10.16h0c-9.64.5-19.3.14-24.44-1.47,9.06-9.06,19.51-25.08,19.51-38.67,0-38.67-62.92-25.19-76.86-17.18l-11.57,33.52c2.83-1.57,9.3-3.89,17.79,3.21,5.47,4.57,11.95,10.94,17.69,16.68-13.94,3.48-20.9,4.02-47.03,4.02-4.53-27.17-18.12-45.83-31.01-45.83-16.03,0-27.52,20.75-27.52,43.74,0,21.25,9.76,32.21,32.4,32.21h20.21c-2.79,14.98-28.11,28.22-76.3,28.22l2.5,3.48c27.52,29.61,74.85,22.99,80.42-31.7,22.99,0,47.31-4.74,62.98-16.93,11.8,11.18,18.48,17.13,38.33,17.03,19.21-.09,32.1-10.28,37.06-21.86,2.09,14.28,10.8,21.95,27.52,21.95,8.71,0,18.28-4.03,23.5-12.74,4.18,6.62,11.34,12.74,20.05,12.74,9.75,0,16.03-3.48,21.6-12.19,3.47,6.84,12.17,12.13,22.19,12.15h0c4.5-.38,8.87-1.99,12.94-4.66,1.51-.99,2.97-2.12,4.39-3.38,7.46-6.66,13.58-17.06,17.12-29.89,5.78-20.94,1.73-42.45-4.16-66.93l13.26-11.65ZM646.32,655.8c-11.85,0-21.95-1.05-21.95-4.53,0-6.97,8.71-15.17,18.81-15.17,12.19,0,20.55,9.95,25.08,19.7h-21.95ZM739.14,646.17c-8.01-7.66-20.71-18.79-30.81-24.01,41.11-7.32,57.14.35,57.14,2.44,0,5.57-13.43,16-26.32,21.57Z"/>
  </g>
</svg>