<?xml version="1.0" encoding="UTF-8"?>
<svg id="Layer_2" data-name="Layer 2" xmlns="http://www.w3.org/2000/svg" viewBox="0 0 437.67 288.41">
  <defs>
    <style>
      .cls-1 {
        fill: #05272e;
      }
    </style>
  </defs>
  <g id="Layer_1-2" data-name="Layer 1">
    <g>
      <path class="cls-1" d="M0,288.41h160.83V0H0v288.41ZM21.64,21.64h117.55v245.13H21.64V21.64Z"/>
      <rect class="cls-1" x="71.77" y="70.52" width="17.29" height="17.29" transform="translate(-32.42 80.05) rotate(-45)"/>
      <rect class="cls-1" x="71.91" y="99.78" width="17.29" height="17.29" transform="translate(-53.07 88.72) rotate(-45)"/>
      <rect class="cls-1" x="36.48" y="39.86" width="87.87" height="21.64"/>
      <polygon class="cls-1" points="55.56 166.4 124.35 166.4 124.35 144.75 33.92 144.75 33.92 188.54 55.56 188.54 55.56 166.4"/>
      <rect class="cls-1" x="36.48" y="225.49" width="87.87" height="21.64"/>
      <rect class="cls-1" x="85.11" y="118.34" width="17.29" height="17.29" transform="translate(-62.33 103.49) rotate(-45)"/>
      <rect class="cls-1" x="59.62" y="118.34" width="17.29" height="17.29" transform="translate(-69.8 85.47) rotate(-45)"/>
      <rect class="cls-1" x="85.11" y="199.26" width="17.29" height="17.29" transform="translate(-119.55 127.19) rotate(-45)"/>
      <rect class="cls-1" x="59.62" y="199.26" width="17.29" height="17.29" transform="translate(-127.01 109.17) rotate(-45)"/>
      <path class="cls-1" d="M224.64,54.94c.91,0,1.69-.29,2.32-.87.64-.58.96-1.38.96-2.41s-.32-1.87-.96-2.45-1.41-.87-2.32-.87-1.69.29-2.32.87c-.64.58-.96,1.4-.96,2.45s.32,1.83.96,2.41c.63.58,1.41.87,2.32.87Z"/>
      <path class="cls-1" d="M232.15,54.07c.94,0,1.73-.29,2.37-.87.64-.58.96-1.38.96-2.41s-.32-1.86-.96-2.43c-.64-.57-1.43-.85-2.37-.85-.89,0-1.65.28-2.3.85-.65.57-.97,1.38-.97,2.43s.32,1.83.97,2.41c.65.58,1.42.87,2.3.87Z"/>
      <path class="cls-1" d="M405.91,45.06c0,1.05.33,1.87.98,2.45.65.58,1.42.87,2.3.87.94,0,1.73-.29,2.37-.87.64-.58.96-1.4.96-2.45s-.32-1.82-.96-2.39c-.64-.57-1.41-.85-2.32-.85s-1.7.28-2.35.85c-.65.57-.98,1.36-.98,2.39Z"/>
      <path class="cls-1" d="M404.87,42.12c.86,0,1.58-.26,2.16-.79.58-.53.87-1.27.87-2.24s-.29-1.67-.87-2.2c-.58-.53-1.3-.79-2.16-.79s-1.58.26-2.16.79c-.58.53-.87,1.26-.87,2.2s.29,1.72.87,2.24c.58.53,1.3.79,2.16.79Z"/>
      <path class="cls-1" d="M401.68,49.17c.94,0,1.72-.29,2.35-.87s.93-1.4.93-2.45-.32-1.83-.95-2.41c-.64-.58-1.41-.87-2.33-.87s-1.69.29-2.32.87c-.64.58-.95,1.38-.95,2.41s.32,1.87.95,2.45,1.41.87,2.32.87Z"/>
      <path class="cls-1" d="M437.44,69.37c-.04-.79-.07-1.59-.08-2.41-.01-.82-.02-1.5-.02-2.05v-14.49h-.46l-6.85.75v11.66c0,1.16.06,2.16.19,2.99.03.23.08.43.13.62h-9.07v-15.9h-.46l-6.85.75v11.66c0,1.14.06,2.1.17,2.89.03.22.07.42.12.6h-5.43v-14.57h-.46l-6.85.75v10.79c0,1.02.05,1.9.15,2.62.02.15.05.28.08.42h-5.37v-13.2h-.46l-6.85.75v9.42c0,1.05.05,1.94.14,2.66.02.13.04.25.07.37h-22.05s0,0,0,0h-34.87s0,0,0,0h-26.15s0,0,0,0h-34.87s0,0,0,0h-23.07c0-.58-.01-1.11-.01-1.54v-14.49h-.46l-6.85.75v11.79c0,1.16.06,2.14.19,2.93.03.2.07.39.12.56h-14.09c-1.19,0-2.63-.02-4.34-.06-1.7-.04-3.44-.15-5.23-.33-1.78-.18-3.41-.48-4.88-.89-.3-.11-.73-.25-1.27-.42-.54-.17-1.09-.35-1.64-.56s-.98-.38-1.29-.52h-.46l-1.49,5.89c.36.17.83.35,1.41.54.58.19,1.19.38,1.83.56.64.18,1.22.34,1.74.48,3.02.69,5.75,1.11,8.2,1.27,2.45.15,4.92.23,7.41.23h43.34s0,0,0,0h34.87s0,0,0,0h26.15s0,0,0,0h34.87s0,0,0,0h63.84c1.74,0,3.21-.08,4.4-.25,1.19-.17,2.2-.42,3.03-.75v-.33c-.11-.5-.19-1.14-.23-1.93Z"/>
      <path class="cls-1" d="M435.49,81.76c.62-.58.93-1.4.93-2.45s-.32-1.82-.96-2.39c-.64-.57-1.41-.85-2.32-.85s-1.7.28-2.35.85c-.65.57-.98,1.36-.98,2.39s.33,1.87.98,2.45c.65.58,1.43.87,2.35.87s1.72-.29,2.34-.87Z"/>
      <path class="cls-1" d="M237.15,103.22c.43-.42.64-.95.64-1.62s-.21-1.2-.64-1.62c-.43-.42-.96-.62-1.6-.62s-1.17.21-1.6.62c-.43.42-.64.96-.64,1.62s.21,1.2.64,1.62c.43.42.96.62,1.6.62s1.17-.21,1.6-.62Z"/>
      <path class="cls-1" d="M231.72,103.97c.43-.42.64-.96.64-1.62s-.21-1.2-.64-1.62-.96-.62-1.6-.62-1.17.21-1.6.62c-.43.42-.64.95-.64,1.62s.21,1.2.64,1.62c.43.42.96.62,1.6.62s1.17-.21,1.6-.62Z"/>
      <path class="cls-1" d="M223.31,122.23c2.46.14,4.94.21,7.43.21h13.45c1.74,0,3.3-.08,4.67-.25,1.37-.17,2.47-.42,3.3-.75v-.33c-.11-.5-.19-1.09-.23-1.79-.04-.69-.07-1.4-.08-2.12-.01-.72-.02-1.36-.02-1.91v-13.78h-.33l-3.49.5v13.78c0,.86.05,1.64.17,2.35.04.28.09.54.13.77h-17.57c-1.19,0-2.64-.02-4.34-.06s-3.45-.15-5.23-.31c-1.78-.17-3.41-.46-4.88-.87-.3-.11-.73-.25-1.29-.42-.55-.17-1.11-.35-1.66-.54-.55-.19-.98-.36-1.29-.5h-.33l-.75,3.36c.36.17.75.33,1.18.5.43.17.89.33,1.39.48.5.15,1.01.3,1.54.44,3.02.69,5.76,1.11,8.22,1.25Z"/>
      <path class="cls-1" d="M263.62,97.37c0-.55,0-1.22.02-1.99.01-.77.04-1.54.08-2.28.04-.75.12-1.37.23-1.87v-.33l-4.15.5v31.05h3.82v-25.07Z"/>
      <path class="cls-1" d="M275.45,132.21c1.55-.68,2.82-1.72,3.82-3.11s1.74-3.15,2.22-5.27.73-4.63.73-7.53c0-2.55-.05-4.76-.15-6.64-.1-1.88-.26-3.71-.48-5.48h-.33l-3.65.5c.22,1.8.41,3.65.56,5.56.15,1.91.23,3.99.23,6.23s-.12,4.3-.37,5.94-.57,3.02-.98,4.17c-.32.91-.69,1.71-1.09,2.44-.71.27-1.46.48-2.25.61-1.16.19-2.31.29-3.45.29-.77,0-1.5-.05-2.18-.15-.68-.1-1.28-.21-1.81-.35l-.83,3.15v.33c.89.11,1.67.19,2.37.25.69.06,1.4.08,2.12.08,2.13,0,3.97-.34,5.52-1.02Z"/>
      <path class="cls-1" d="M293.69,95.37c.01-.77.04-1.54.08-2.28.04-.75.12-1.37.23-1.87v-.33l-4.15.5v31.05h17.83c.71.35,1.45.64,2.22.83.91.22,1.81.33,2.7.33,1.38,0,2.88-.21,4.48-.62,1.6-.42,3.15-1.08,4.65-1.99l.13-1.04c.61.76,1.36,1.36,2.26,1.77,1.07.48,2.43.73,4.09.73h40.93c1.44,0,2.79.06,4.05.17,1.26.11,2.44.32,3.55.62,1.11.3,2.12.76,3.03,1.37,2.55-.5,4.66-1.22,6.35-2.16,1.69-.94,2.96-2.12,3.82-3.53.86-1.41,1.29-3.06,1.29-4.94v-12.45h-.33l-3.49.5v14.95c-.54.56-1.13,1.08-1.79,1.51-1.02.68-2.09,1.21-3.2,1.6-.86.3-1.69.51-2.49.63v-17.85h-.33l-3.49.5v16.64c-.58-.32-1.22-.56-1.91-.72-1-.23-2.24-.35-3.74-.35h-1.83v-14.57h-.33l-3.49.5v11.95c0,.61,0,1.19.02,1.74,0,.13.01.25.02.37h-11.49v-17.39h-.33l-3.49.5v13.78c0,.86.06,1.64.17,2.35.04.28.09.54.13.77h-11.71v-17.39h-.33l-3.49.5v13.78c0,.86.06,1.64.17,2.35.04.28.09.54.13.77h-5.57c-1.69,0-3-.39-3.94-1.18-.94-.79-1.7-2.11-2.28-3.96l-3.57-11.17-.66-.33c-1.91,0-3.79.28-5.62.85-1.84.57-3.51,1.39-5.02,2.47-1.51,1.08-2.71,2.39-3.61,3.94-.9,1.55-1.35,3.31-1.35,5.27,0,1.22.19,2.3.56,3.26.12.3.28.57.42.85h-10.28v-21.54c0-.55,0-1.22.02-1.99ZM307.37,111.87c.39-.93,1.03-1.81,1.93-2.66.9-.84,2.09-1.57,3.57-2.18,1.04-.43,2.25-.72,3.61-.9l3.26,9.62c.3.87.63,1.65.98,2.35-.73.38-1.55.75-2.49,1.1-1.56.58-3.24.87-5.04.87-1.05,0-2.07-.19-3.05-.58-.98-.39-1.79-1-2.41-1.83-.62-.83-.93-1.9-.93-3.2,0-.8.19-1.67.58-2.59Z"/>
      <path class="cls-1" d="M337.19,96.91c.43.42.96.62,1.6.62s1.17-.21,1.6-.62c.43-.42.64-.96.64-1.62s-.21-1.2-.64-1.62c-.43-.42-.96-.62-1.6-.62s-1.17.21-1.6.62c-.43.42-.64.95-.64,1.62s.21,1.2.64,1.62Z"/>
      <path class="cls-1" d="M335.43,88.4c-.64,0-1.17.21-1.6.62s-.64.96-.64,1.62.21,1.2.64,1.62.96.62,1.6.62,1.17-.21,1.6-.62.64-.95.64-1.62-.21-1.2-.64-1.62-.96-.62-1.6-.62Z"/>
      <path class="cls-1" d="M331.11,95.96c0,.66.21,1.2.64,1.62.43.42.96.62,1.6.62s1.17-.21,1.6-.62c.43-.42.64-.96.64-1.62s-.21-1.2-.64-1.62c-.43-.42-.96-.62-1.6-.62s-1.17.21-1.6.62c-.43.42-.64.95-.64,1.62Z"/>
      <path class="cls-1" d="M355.71,96.49c.43-.42.64-.95.64-1.62s-.21-1.2-.64-1.62c-.43-.42-.96-.62-1.6-.62s-1.17.21-1.6.62c-.43.42-.64.96-.64,1.62s.21,1.2.64,1.62c.43.42.96.62,1.6.62s1.17-.21,1.6-.62Z"/>
      <path class="cls-1" d="M350.27,97.24c.43-.42.64-.96.64-1.62s-.21-1.2-.64-1.62c-.43-.42-.96-.62-1.6-.62s-1.17.21-1.6.62c-.43.42-.64.95-.64,1.62s.21,1.2.64,1.62c.43.42.96.62,1.6.62s1.17-.21,1.6-.62Z"/>
      <path class="cls-1" d="M395.7,122.11v.33h33.62c1.74,0,3.24-.08,4.5-.25,1.26-.17,2.3-.42,3.13-.75v-.33c-.11-.5-.19-1.09-.23-1.79-.04-.69-.07-1.4-.08-2.12-.01-.72-.02-1.36-.02-1.91v-24.41h-.33l-3.49.5v24.41c0,.86.05,1.64.17,2.35.04.28.09.54.13.77h-11.84v-28.02h-.33l-3.49.5v24.41c0,.86.06,1.64.17,2.35.04.28.09.54.13.77h-7.61v-19.55h-.33l-3.49.5v15.94c0,.86.05,1.64.17,2.35.04.28.09.54.13.77h-9.76l-1.16,3.2Z"/>
      <path class="cls-1" d="M221.24,141.78c-.64,0-1.17.21-1.6.62-.43.42-.64.96-.64,1.62s.21,1.2.64,1.62c.43.42.96.62,1.6.62s1.17-.21,1.6-.62.64-.96.64-1.62-.21-1.2-.64-1.62-.96-.62-1.6-.62Z"/>
      <path class="cls-1" d="M217.67,171.32c1.11.62,2.37.93,3.78.93,1.22,0,2.32-.2,3.3-.6.98-.4,1.84-.9,2.57-1.5.5-.4.9-.78,1.27-1.16v3.25h10.46c1.74,0,3.24-.08,4.5-.25,1.26-.17,2.3-.42,3.13-.75v-.33c-.11-.5-.19-1.09-.23-1.79-.04-.69-.07-1.4-.08-2.12-.01-.72-.02-1.36-.02-1.91v-13.78h-.33l-3.49.5v13.78c0,.86.05,1.64.17,2.35.04.28.09.54.13.77h-10.93v-19.05h-.33l-3.49.5v1.65c-2.01.77-3.76,1.53-5.23,2.27-1.94.98-3.49,1.94-4.65,2.88s-2.03,1.86-2.62,2.76c-.58.9-.97,1.76-1.16,2.59-.19.83-.29,1.63-.29,2.41,0,1.52.31,2.84.93,3.96.62,1.12,1.49,1.99,2.59,2.62ZM224.72,156.75c1.02-.48,2.14-.96,3.36-1.46v10.86c-.69.54-1.42,1.07-2.2,1.56-1.08.68-2.23,1.02-3.45,1.02s-2.3-.4-3.24-1.2c-.94-.8-1.41-1.99-1.41-3.57,0-.72.08-1.42.23-2.12.1-.46.28-.96.49-1.46.84-.6,1.67-1.17,2.48-1.66,1.16-.69,2.41-1.35,3.74-1.97Z"/>
      <path class="cls-1" d="M225.08,141.66c-.43.42-.64.95-.64,1.62s.21,1.2.64,1.62c.43.42.96.62,1.6.62s1.17-.21,1.6-.62c.43-.42.64-.95.64-1.62s-.21-1.2-.64-1.62c-.43-.42-.96-.62-1.6-.62s-1.17.21-1.6.62Z"/>
      <path class="cls-1" d="M241.12,179.14c0-.66-.21-1.2-.64-1.62-.43-.42-.96-.62-1.6-.62s-1.17.21-1.6.62-.64.96-.64,1.62.21,1.2.64,1.62.96.62,1.6.62,1.17-.21,1.6-.62c.43-.42.64-.96.64-1.62Z"/>
      <path class="cls-1" d="M245.91,180.01c.43-.42.64-.96.64-1.62s-.21-1.2-.64-1.62c-.43-.42-.96-.62-1.6-.62s-1.17.21-1.6.62c-.43.42-.64.96-.64,1.62s.21,1.2.64,1.62c.43.42.96.62,1.6.62s1.17-.21,1.6-.62Z"/>
      <path class="cls-1" d="M259.78,176.38c-.32.91-.69,1.71-1.09,2.44-.71.27-1.46.48-2.25.61-1.16.19-2.31.29-3.45.29-.77,0-1.5-.05-2.18-.15s-1.28-.21-1.81-.35l-.83,3.15v.33c.89.11,1.67.19,2.37.25.69.05,1.4.08,2.12.08,2.13,0,3.97-.34,5.52-1.02,1.55-.68,2.82-1.72,3.82-3.11s1.74-3.15,2.22-5.27.73-4.63.73-7.53c0-2.55-.05-4.76-.15-6.64-.1-1.88-.26-3.71-.48-5.48h-.33l-3.65.5c.22,1.8.41,3.65.56,5.56.15,1.91.23,3.99.23,6.23s-.12,4.3-.37,5.94c-.25,1.63-.57,3.02-.98,4.17Z"/>
      <path class="cls-1" d="M377.25,142.32c-.43.42-.64.96-.64,1.62s.21,1.2.64,1.62c.43.42.96.62,1.6.62s1.17-.21,1.6-.62c.43-.42.64-.96.64-1.62s-.21-1.2-.64-1.62c-.43-.42-.96-.62-1.6-.62s-1.17.21-1.6.62Z"/>
      <path class="cls-1" d="M371.81,143.07c-.43.42-.64.96-.64,1.62s.21,1.2.64,1.62c.43.42.96.62,1.6.62s1.17-.21,1.6-.62.64-.96.64-1.62-.21-1.2-.64-1.62c-.43-.42-.96-.62-1.6-.62s-1.17.21-1.6.62Z"/>
      <path class="cls-1" d="M417.53,172.25c1.74,0,3.24-.08,4.5-.25,1.26-.17,2.3-.42,3.13-.75v-.33c-.11-.5-.19-1.09-.23-1.79-.04-.69-.07-1.4-.08-2.12-.01-.72-.02-1.36-.02-1.91v-24.41h-.33l-3.49.5v24.41c0,.86.05,1.64.17,2.35.04.28.09.54.13.77h-13.49c.67-.49,1.3-1.08,1.9-1.79.91-1.08,1.64-2.27,2.18-3.57.54-1.3.81-2.55.81-3.74,0-1.66-.39-3.15-1.16-4.48-.77-1.33-1.89-2.38-3.34-3.16-1.45-.77-3.22-1.16-5.29-1.16-1.47,0-2.95.19-4.46.56-1.51.37-2.91.85-4.21,1.43s-2.39,1.19-3.28,1.83v.33c.3.39.67.96,1.1,1.72.43.76.86,1.59,1.31,2.49.44.9.85,1.76,1.22,2.59.37.83.66,1.5.85,1.99l2.02,4.94h-16.3c1.16-.97,2.17-2.1,3.01-3.4,1.09-1.69,1.64-3.58,1.64-5.69,0-1.63-.41-3.11-1.22-4.44s-1.95-2.39-3.4-3.18c-1.45-.79-3.15-1.18-5.08-1.18-1.49,0-2.85.23-4.07.68-1.22.46-2.26,1.07-3.13,1.85s-1.54,1.65-1.99,2.64c-.46.98-.69,2-.69,3.05,0,2.21.63,4.22,1.89,6.02.98,1.41,2.13,2.62,3.43,3.65h-95.14v-21.54c0-.55,0-1.22.02-1.99.01-.77.04-1.54.08-2.28.04-.75.12-1.37.23-1.87v-.33l-4.15.5v31.05h99.79c.8,0,1.65-.11,2.53-.33.54-.13,1.07-.3,1.59-.49.54.18,1.08.35,1.63.49.9.22,1.76.33,2.59.33h36.82ZM376.8,168.27c-.59-.29-1.23-.66-1.94-1.12-.97-.64-1.89-1.45-2.76-2.45s-1.57-2.19-2.1-3.57c-.38-1-.6-2.12-.66-3.34.32-.56.7-1.07,1.18-1.52.73-.69,1.56-1.22,2.49-1.58.93-.36,1.85-.54,2.76-.54,1.36,0,2.5.33,3.42,1,.93.66,1.62,1.49,2.1,2.47s.71,1.99.71,3.01c0,1.22-.3,2.37-.89,3.47-.6,1.09-1.36,2.03-2.28,2.82-.66.56-1.34,1.01-2.03,1.35ZM395.79,155.74c.69-.3,1.45-.6,2.27-.9,1.25-.46,2.64-.69,4.19-.69,2.16,0,3.8.6,4.94,1.79,1.13,1.19,1.7,2.7,1.7,4.52,0,1.66-.42,3.07-1.25,4.23s-1.88,2.12-3.13,2.88c-1,.6-2.01,1.1-3.05,1.5l-2.36-5.96c-.5-1.3-.93-2.4-1.31-3.3-.37-.9-.73-1.71-1.08-2.43-.26-.54-.58-1.09-.93-1.65Z"/>
      <path class="cls-1" d="M432.81,172.25h3.82v-25.07c0-.55,0-1.22.02-1.99.01-.77.04-1.54.08-2.28.04-.75.12-1.37.23-1.87v-.33l-4.15.5v31.05Z"/>
      <path class="cls-1" d="M223.52,214.16c.68-.29,1.2-.71,1.55-1.26.35-.54.53-1.19.53-1.95,0-.83-.27-1.53-.82-2.11-.34-.36-.78-.6-1.3-.77.23-.15.44-.3.63-.49.42-.4.73-.86.94-1.37s.32-1.03.32-1.55c0-1.26-.41-2.23-1.22-2.89-.81-.66-2.04-.99-3.69-.99h-5.68v13.81h6.21c1,0,1.84-.15,2.52-.44ZM220.21,203.6c.5,0,.92.1,1.26.31.34.21.51.6.51,1.19,0,.36-.07.69-.22.99-.15.3-.36.54-.63.73-.28.19-.63.28-1.06.28h-1.86v-3.49h2.01ZM218.19,211.92v-2.36h2.67c.4,0,.72.09.97.28s.37.47.37.85c0,.43-.13.75-.38.94-.26.19-.58.29-.96.29h-2.67Z"/>
      <path class="cls-1" d="M237.39,212.68c.31-.52.46-1.14.46-1.87,0-.86-.18-1.55-.55-2.07s-.86-.93-1.48-1.23c-.62-.29-1.31-.5-2.06-.61l-1.21-.19c-.74-.13-1.28-.3-1.61-.52-.33-.22-.5-.58-.5-1.09,0-.4.12-.72.34-.99.23-.26.57-.46,1.01-.58.44-.13.98-.19,1.62-.19.74,0,1.41.08,2.01.23.6.15,1.09.32,1.48.5h.21v-2.9c-.41-.18-.92-.32-1.53-.43s-1.25-.16-1.92-.16c-1.5,0-2.72.19-3.68.57-.96.38-1.67.92-2.14,1.62-.47.7-.7,1.55-.7,2.53,0,.8.17,1.49.5,2.06.33.57.83,1.03,1.49,1.37.66.35,1.46.59,2.41.73l1.27.19c.64.1,1.08.24,1.33.42.25.18.37.45.37.82,0,.29-.1.53-.3.7-.2.17-.49.3-.86.37-.38.08-.85.12-1.41.12s-1.07-.05-1.6-.14-1.02-.22-1.47-.37-.83-.31-1.15-.48h-.19v3.01c.31.13.7.25,1.17.36s.99.21,1.54.28c.56.07,1.12.11,1.7.11.82,0,1.58-.07,2.29-.22.71-.15,1.33-.38,1.88-.69.54-.31.97-.73,1.28-1.25Z"/>
      <polygon class="cls-1" points="251.81 214.61 251.81 200.8 248.41 200.8 248.41 206.21 243.39 206.21 243.39 200.8 239.98 200.8 239.98 214.61 243.39 214.61 243.39 209.16 248.41 209.16 248.41 214.61 251.81 214.61"/>
      <polygon class="cls-1" points="261.03 214.61 261.03 203.75 265.06 203.75 265.06 200.8 253.63 200.8 253.63 203.75 257.64 203.75 257.64 214.61 261.03 214.61"/>
      <polygon class="cls-1" points="271.77 200.8 271.77 214.61 273.61 214.61 273.61 209.24 279.21 209.24 279.21 207.63 273.61 207.63 273.61 202.41 280.28 202.41 280.28 200.8 271.77 200.8"/>
      <path class="cls-1" d="M291.47,201.47c-.96-.6-2.11-.9-3.44-.9s-2.48.3-3.44.9c-.96.6-1.71,1.44-2.22,2.51-.52,1.07-.78,2.31-.78,3.72s.26,2.65.78,3.72c.52,1.07,1.26,1.91,2.21,2.51.96.6,2.11.9,3.45.9s2.48-.3,3.44-.9,1.71-1.44,2.22-2.51c.52-1.07.78-2.31.78-3.72s-.26-2.65-.78-3.72c-.52-1.07-1.26-1.91-2.22-2.51ZM291.99,210.69c-.37.81-.89,1.42-1.57,1.84-.68.42-1.48.62-2.4.62s-1.72-.21-2.4-.62c-.68-.42-1.2-1.03-1.57-1.84-.37-.81-.56-1.81-.56-2.98s.19-2.17.56-2.98c.37-.81.89-1.43,1.57-1.84.68-.42,1.48-.62,2.4-.62s1.72.21,2.4.62c.68.42,1.2,1.03,1.57,1.84.37.81.56,1.81.56,2.98s-.19,2.17-.56,2.98Z"/>
      <path class="cls-1" d="M305.29,209.08c.49-.45.88-1.02,1.17-1.69.29-.67.43-1.43.43-2.29,0-.92-.18-1.7-.56-2.34-.37-.64-.89-1.12-1.57-1.46s-1.48-.5-2.4-.5h-4.99v13.81h1.84v-4.14h2.45c.23,0,.45-.03.67-.06l3.24,4.2h2.15v-.08l-3.68-4.63c.44-.22.86-.48,1.23-.82ZM299.22,208.78v-6.37h3.07c.81,0,1.45.22,1.95.65s.74,1.11.74,2.03c0,.64-.12,1.24-.35,1.8-.24.56-.59,1.02-1.07,1.36s-1.08.52-1.79.52h-2.53Z"/>
      <path class="cls-1" d="M324.03,207.39c.29-.67.43-1.43.43-2.29,0-.92-.18-1.7-.56-2.34-.37-.64-.89-1.12-1.57-1.46s-1.48-.5-2.4-.5h-4.99v13.81h1.84v-4.14h2.45c.23,0,.45-.03.67-.06l3.24,4.2h2.15v-.08l-3.68-4.63c.44-.22.86-.48,1.23-.82.49-.45.88-1.02,1.17-1.69ZM322.19,206.9c-.24.56-.59,1.02-1.07,1.36s-1.08.52-1.79.52h-2.53v-6.37h3.07c.81,0,1.45.22,1.95.65s.74,1.11.74,2.03c0,.64-.12,1.24-.35,1.8Z"/>
      <polygon class="cls-1" points="336.34 202.41 336.34 200.8 327.6 200.8 327.6 214.61 336.58 214.61 336.58 213 329.44 213 329.44 208.16 335.27 208.16 335.27 206.55 329.44 206.55 329.44 202.41 336.34 202.41"/>
      <path class="cls-1" d="M347.05,200.71c-.47-.04-.93-.07-1.39-.07-.96,0-1.77.1-2.44.31-.67.21-1.21.51-1.63.92s-.76.91-1.01,1.5c-.25.59-.44,1.27-.57,2.03l-1.53,9.2h1.88l.7-4.22h5.51v4.22h1.84v-11.31c0-.38,0-.77.03-1.15.02-.38.05-.7.09-.96l-.04-.23c-.5-.11-.98-.19-1.45-.24ZM341.34,208.78l.56-3.37c.13-.72.32-1.3.57-1.76.25-.46.62-.8,1.11-1.04s1.16-.34,2-.34c.28,0,.54.01.78.04.1.01.16.04.25.06,0,.06-.02.11-.02.18,0,.22,0,.46,0,.72v5.52h-5.24Z"/>
      <polygon class="cls-1" points="353.95 200.8 352.11 200.8 352.11 214.61 359.85 214.61 359.85 213 353.95 213 353.95 200.8"/>
      <polygon class="cls-1" points="369.06 208.16 374.89 208.16 374.89 206.55 369.06 206.55 369.06 202.41 375.96 202.41 375.96 200.8 367.22 200.8 367.22 214.61 376.19 214.61 376.19 213 369.06 213 369.06 208.16"/>
      <path class="cls-1" d="M385.87,208.22c-.49-.28-1.05-.48-1.71-.59l-1.69-.31c-.74-.14-1.32-.37-1.75-.69s-.63-.88-.63-1.69c0-.64.17-1.16.51-1.55.34-.4.8-.68,1.38-.86.58-.18,1.23-.27,1.95-.27.65,0,1.21.06,1.68.19s.85.27,1.16.42h.15v-1.76c-.34-.15-.78-.28-1.31-.38s-1.06-.15-1.6-.15c-1.15,0-2.16.16-3.02.47-.86.31-1.53.8-2.01,1.46s-.72,1.5-.72,2.52c0,.82.16,1.5.48,2.03s.75.96,1.29,1.26c.54.3,1.12.51,1.76.62l1.69.31c.7.13,1.23.33,1.58.59s.53.71.53,1.32c0,.51-.14.91-.41,1.2-.28.29-.65.49-1.13.61-.48.12-1.03.18-1.64.18-.54,0-1.04-.03-1.51-.1-.47-.06-.89-.16-1.28-.28-.39-.12-.74-.27-1.04-.43h-.15v1.8c.33.13.71.24,1.12.34.42.1.86.19,1.34.25.48.06.99.1,1.52.1.75,0,1.44-.08,2.05-.23.61-.15,1.14-.39,1.58-.7.44-.31.78-.71,1.03-1.18.24-.47.36-1.02.36-1.65,0-.69-.14-1.27-.41-1.74-.28-.47-.66-.84-1.14-1.12Z"/>
      <polygon class="cls-1" points="388.61 202.41 393.06 202.41 393.06 214.61 394.9 214.61 394.9 202.41 399.35 202.41 399.35 200.8 388.61 200.8 388.61 202.41"/>
      <path class="cls-1" d="M408.07,200.71c-.47-.04-.93-.07-1.39-.07-.96,0-1.77.1-2.44.31-.67.21-1.21.51-1.63.92s-.76.91-1.01,1.5c-.25.59-.44,1.27-.57,2.03l-1.53,9.2h1.88l.7-4.22h5.51v4.22h1.84v-11.31c0-.38,0-.77.03-1.15.02-.38.05-.7.09-.96l-.04-.23c-.5-.11-.98-.19-1.45-.24ZM402.35,208.78l.56-3.37c.13-.72.32-1.3.57-1.76.25-.46.62-.8,1.11-1.04s1.16-.34,2-.34c.28,0,.54.01.78.04.1.01.16.04.25.06,0,.06-.02.11-.02.18,0,.22,0,.46,0,.72v5.52h-5.24Z"/>
      <polygon class="cls-1" points="411.51 202.41 415.96 202.41 415.96 214.61 417.8 214.61 417.8 202.41 422.24 202.41 422.24 200.8 411.51 200.8 411.51 202.41"/>
      <polygon class="cls-1" points="426.16 208.16 431.99 208.16 431.99 206.55 426.16 206.55 426.16 202.41 433.06 202.41 433.06 200.8 424.32 200.8 424.32 214.61 433.29 214.61 433.29 213 426.16 213 426.16 208.16"/>
      <rect class="cls-1" x="215.16" y="223.81" width="1.84" height="13.81"/>
      <polygon class="cls-1" points="229.28 231.26 222.22 223.81 220.69 223.81 220.69 237.62 222.53 237.62 222.53 226.73 229.28 233.85 229.28 237.62 231.12 237.62 231.12 223.81 229.28 223.81 229.28 231.26"/>
      <path class="cls-1" d="M241.16,233.17c-.09.63-.26,1.17-.5,1.63-.24.46-.61.81-1.1,1.06-.49.25-1.16.37-2,.37-.28,0-.53,0-.75-.03-.07,0-.13-.03-.2-.04,0-.07,0-.13.01-.21.01-.24.02-.48.02-.72v-11.43h-1.84v10.43c0,.26,0,.58,0,.96s-.02.77-.03,1.15c-.01.38-.04.7-.08.96l.04.23c.5.12.97.2,1.41.24.44.04.89.07,1.35.07.96,0,1.77-.1,2.42-.31.66-.2,1.2-.51,1.62-.92.42-.41.75-.91.99-1.5.24-.59.41-1.27.53-2.03l1.38-9.28h-1.88l-1.38,9.36Z"/>
      <polygon class="cls-1" points="249.03 231.17 254.86 231.17 254.86 229.56 249.03 229.56 249.03 225.42 255.93 225.42 255.93 223.81 247.19 223.81 247.19 237.62 256.16 237.62 256.16 236 249.03 236 249.03 231.17"/>
      <path class="cls-1" d="M265.84,231.23c-.49-.28-1.05-.48-1.71-.59l-1.69-.31c-.74-.14-1.32-.37-1.75-.69s-.63-.88-.63-1.69c0-.64.17-1.16.51-1.55.34-.4.8-.68,1.38-.86.58-.18,1.23-.27,1.95-.27.65,0,1.21.06,1.68.19s.85.27,1.16.42h.15v-1.76c-.34-.15-.78-.28-1.31-.38s-1.06-.15-1.6-.15c-1.15,0-2.16.16-3.02.47-.86.31-1.53.8-2.01,1.46s-.72,1.5-.72,2.52c0,.82.16,1.5.48,2.03s.75.96,1.29,1.26c.54.3,1.12.51,1.76.62l1.69.31c.7.13,1.23.33,1.58.59s.53.71.53,1.32c0,.51-.14.91-.41,1.2-.28.29-.65.49-1.13.61-.48.12-1.03.18-1.64.18-.54,0-1.04-.03-1.51-.1-.47-.06-.89-.16-1.28-.28-.39-.12-.74-.27-1.04-.43h-.15v1.8c.33.13.71.24,1.12.34.42.1.86.19,1.34.25.48.06.99.1,1.52.1.75,0,1.44-.08,2.05-.23.61-.15,1.14-.39,1.58-.7.44-.31.78-.71,1.03-1.18.24-.47.36-1.02.36-1.65,0-.69-.14-1.27-.41-1.74-.28-.47-.66-.84-1.14-1.12Z"/>
      <polygon class="cls-1" points="268.58 225.42 273.03 225.42 273.03 237.62 274.87 237.62 274.87 225.42 279.32 225.42 279.32 223.81 268.58 223.81 268.58 225.42"/>
      <polygon class="cls-1" points="287.41 230.8 282.93 223.81 281.39 223.81 281.39 237.62 283.23 237.62 283.23 227.56 286.68 232.86 288.14 232.86 291.59 227.56 291.59 237.62 293.43 237.62 293.43 223.81 291.9 223.81 287.41 230.8"/>
      <polygon class="cls-1" points="298.95 231.17 304.78 231.17 304.78 229.56 298.95 229.56 298.95 225.42 305.86 225.42 305.86 223.81 297.11 223.81 297.11 237.62 306.09 237.62 306.09 236 298.95 236 298.95 231.17"/>
      <polygon class="cls-1" points="317.52 231.26 310.46 223.81 308.93 223.81 308.93 237.62 310.77 237.62 310.77 226.73 317.52 233.85 317.52 237.62 319.36 237.62 319.36 223.81 317.52 223.81 317.52 231.26"/>
      <polygon class="cls-1" points="321.43 225.42 325.88 225.42 325.88 237.62 327.72 237.62 327.72 225.42 332.16 225.42 332.16 223.81 321.43 223.81 321.43 225.42"/>
      <path class="cls-1" d="M341.08,231.23c-.49-.28-1.05-.48-1.71-.59l-1.69-.31c-.74-.14-1.32-.37-1.75-.69s-.63-.88-.63-1.69c0-.64.17-1.16.51-1.55.34-.4.8-.68,1.38-.86.58-.18,1.23-.27,1.95-.27.65,0,1.21.06,1.68.19s.85.27,1.16.42h.15v-1.76c-.34-.15-.78-.28-1.31-.38s-1.06-.15-1.6-.15c-1.15,0-2.16.16-3.02.47-.86.31-1.53.8-2.01,1.46s-.72,1.5-.72,2.52c0,.82.16,1.5.48,2.03s.75.96,1.29,1.26c.54.3,1.12.51,1.76.62l1.69.31c.7.13,1.23.33,1.58.59s.53.71.53,1.32c0,.51-.14.91-.41,1.2-.28.29-.65.49-1.13.61-.48.12-1.03.18-1.64.18-.54,0-1.04-.03-1.51-.1-.47-.06-.89-.16-1.28-.28-.39-.12-.74-.27-1.04-.43h-.15v1.8c.33.13.71.24,1.12.34.42.1.86.19,1.34.25.48.06.99.1,1.52.1.75,0,1.44-.08,2.05-.23.61-.15,1.14-.39,1.58-.7.44-.31.78-.71,1.03-1.18.24-.47.36-1.02.36-1.65,0-.69-.14-1.27-.41-1.74-.28-.47-.66-.84-1.14-1.12Z"/>
    </g>
  </g>
</svg>