<?xml version="1.0" encoding="UTF-8"?>
<svg id="Layer_2" data-name="Layer 2" xmlns="http://www.w3.org/2000/svg" viewBox="0 0 1387.91 364.33">
  <defs>
    <style>
      .cls-1 {
        fill: #e8aa23;
      }

      .cls-2 {
        fill: #fff;
      }
    </style>
  </defs>
  <g id="Layer_1-2" data-name="Layer 1">
    <g>
      <path class="cls-2" d="M482.29,306.02c-4.65-4.31-10.61-7-17.54-7-14.83,0-26.3,12.28-26.3,27.26s11.47,27.26,26.3,27.26c12.12,0,21.86-7.11,22.41-18.21h-20.89v-9.81h34.1c0,26.51-14.29,38.79-35.61,38.79s-37.78-16.92-37.78-38.04,16.56-38.15,37.78-38.15c10.39,0,19.48,3.99,25.98,10.45l-8.44,7.44h0Z"/>
      <path class="cls-2" d="M559.89,288.14c21.32,0,37.89,17.13,37.89,38.15s-16.56,38.04-37.89,38.04-37.67-16.92-37.67-38.04,16.45-38.15,37.67-38.15ZM559.89,353.11c14.83,0,26.3-11.85,26.3-26.83s-11.47-26.94-26.3-26.94-26.19,11.96-26.19,26.94,11.47,26.83,26.19,26.83Z"/>
      <path class="cls-2" d="M667.15,363.24v-74.24h29.01c21.22,0,33.56,16.16,33.56,37.28s-12.34,36.96-33.56,36.96h-29.01ZM678.62,352.68h17.54c14.61,0,22.08-11.64,22.08-26.4s-7.47-26.62-22.08-26.62h-17.54v53.02Z"/>
      <path class="cls-2" d="M758.5,289h44.92v10.56h-33.45v21.98h29.23v10.45h-29.23v20.8h34.53v10.45h-46v-74.24h0Z"/>
      <path class="cls-2" d="M833.4,289h44.92v10.56h-33.45v21.98h29.23v10.45h-29.23v20.8h34.53v10.45h-46v-74.24h0Z"/>
      <path class="cls-2" d="M908.29,289h29.98c16.02,0,22.73,11.85,22.73,23.6s-6.71,23.38-22.73,23.38h-18.4v27.26h-11.58v-74.24ZM919.87,299.56v25.97h17.75c8.23,0,11.91-6.57,11.91-12.93s-3.36-13.04-11.47-13.04h-18.19Z"/>
    </g>
    <path class="cls-2" d="M633.36,213.46h28.5c3.55,0,6.43-2.86,6.43-6.39V7.27c0-3.53-2.88-6.39-6.43-6.39h-28.5c-3.55,0-6.43,2.86-6.43,6.39v199.8c0,3.53,2.88,6.39,6.43,6.39"/>
    <path class="cls-2" d="M752.24,7.22v81.84h-53.9c-3.55,0-6.43,2.86-6.43,6.39v23.7c0,3.53,2.88,6.39,6.43,6.39h53.9v81.46c0,3.53,2.88,6.39,6.43,6.39h28.5c3.55,0,6.43-2.86,6.43-6.39V7.21c0-3.53-2.88-6.39-6.43-6.39h-28.5c-3.55,0-6.43,2.86-6.43,6.39"/>
    <path class="cls-2" d="M869.48,177.05v-51.37h81.6c3.55,0,6.43-2.86,6.43-6.39v-23.7c0-3.53-2.88-6.39-6.43-6.39h-81.6v-21.88c0-3.53-2.88-6.39-6.43-6.39h-28.5c-3.55,0-6.43,2.86-6.43,6.39v139.83c0,3.53,2.88,6.39,6.43,6.39h143.28c3.55,0,6.43-2.86,6.43-6.39v-23.7c0-3.53-2.88-6.39-6.43-6.39h-108.35Z"/>
    <path class="cls-2" d="M973.53,37.3h-134.68c-5.93,0-10.73-4.77-10.73-10.66v-15.16c0-5.89,4.8-10.66,10.73-10.66h134.68c5.93,0,10.73,4.77,10.73,10.66v15.16c0,5.89-4.8,10.66-10.73,10.66"/>
    <path class="cls-2" d="M1060.14,177.05v-51.37h81.6c3.55,0,6.43-2.86,6.43-6.39v-23.7c0-3.53-2.88-6.39-6.43-6.39h-81.6v-21.88c0-3.53-2.88-6.39-6.43-6.39h-28.5c-3.55,0-6.43,2.86-6.43,6.39v139.83c0,3.53,2.88,6.39,6.43,6.39h143.28c3.55,0,6.43-2.86,6.43-6.39v-23.7c0-3.53-2.88-6.39-6.43-6.39h-108.35Z"/>
    <path class="cls-2" d="M1164.19,37.3h-134.68c-5.93,0-10.73-4.77-10.73-10.66v-15.16c0-5.89,4.8-10.66,10.73-10.66h134.68c5.93,0,10.73,4.77,10.73,10.66v15.16c0,5.89-4.8,10.66-10.73,10.66"/>
    <path class="cls-2" d="M410.82,205.43L354.19,5.36c-.78-2.76-3.31-4.66-6.19-4.66h-67.91c-2.88,0-5.41,1.91-6.19,4.66l-56.63,200.07c-1.15,4.08,1.93,8.12,6.19,8.12h28c2.88,0,5.41-1.91,6.19-4.66l47.28-167.05c.78-2.76,3.31-4.66,6.19-4.66h5.84c2.88,0,5.41,1.9,6.19,4.66l18.53,65.47h-30.71c-3.55,0-6.43,2.86-6.43,6.39v23.7c0,3.53,2.88,6.39,6.43,6.39h41.04l18.43,65.09c.78,2.75,3.31,4.66,6.19,4.66h28c4.26,0,7.35-4.05,6.19-8.12"/>
    <path class="cls-2" d="M588.72,122.76c-5.23-7.28-12.57-13.26-21.41-17.41-9.81-4.69-22.65-9.68-38.4-15.04-7.53-2.37-14.93-5.03-22.22-8.02-7.11-2.93-13.45-6.28-17.23-13.36-3.5-6.56-3.66-14.94.17-21.31,3.08-5.1,8.38-8.59,14.02-10.63,7.89-2.87,16.84-3.86,25.2-3.77,2.52.03,4.67-1.8,5.04-4.28l3.3-22.43c.43-2.94-1.8-5.6-4.79-5.72-16.26-.64-33.48,1.86-48.38,8.56-12.36,5.56-23.44,14.71-29.42,26.81-4.72,9.55-6.08,20.53-4.96,31.12,4.79,45.15,61.89,49.32,94.33,67.13,6.42,3.52,13.1,8.31,14.49,15.46,1.58,8.03-4.27,15.78-11.13,20.31-9.1,6.01-20.28,8.42-31.2,8.24-17.22-.3-40.39-5.87-55.26-14.98-.98-.6-1.97-.9-3.04-.97-1.37-.07-2.36.22-2.81.97l-3.73,5.3c-6.01,8.46-9.58,13.82-10.56,16.09-.45.91-.38,1.51.38,2.35.84.9,1.68,1.73,2.66,2.57,18.4,15.48,46.36,22.05,69.95,23.23,17.97.9,36.45-2.41,51.94-11.52,15.49-9.1,27.68-24.37,30.97-41.94,2.59-13.82-.61-26.55-7.92-36.74"/>
    <path class="cls-1" d="M596.91,20.35c-.35-.46-.84-.9-1.41-1.37-1.74-1.45-3.58-2.8-5.49-4.05-3.76-2.46-7.8-4.5-12.02-6.05-3.74-1.37-14.72-4.28-16.3-3.7-1.31.47-2.26,1.61-2.46,2.98l-3.74,24.84c-.3,2.03.97,3.96,2.98,4.45,7.42,1.84,15.89,4.24,20.82,6.64,1.02.54,1.99.81,2.97.82,1.32.01,2.27-.37,2.68-1.13l3.3-5.23c3.05-4.84,6.09-9.71,8.77-14.76.81-1.5.63-2.51-.09-3.44"/>
    <path class="cls-2" d="M1281.27.54v.08c-1.1-.03-2.2-.08-3.31-.08v.17h-61.67c-1.66,0-3.15.66-4.5,2.01-1.34,1.32-2.01,2.91-2.01,4.76v139.76c0,1.65.67,3.14,2.01,4.46,1.36,1.35,2.84,2.01,4.5,2.01h26.99c1.85,0,3.46-.61,4.81-1.85,1.34-1.24,2.01-2.78,2.01-4.62V41.01c0-1.04.36-1.91,1.08-2.63.73-.73,1.6-1.08,2.63-1.08h24.15v.28c38.38,0,69.6,31.22,69.6,69.6s-31.22,69.6-69.6,69.6v.09h-24.15c-1.85,0-3.45.58-4.8,1.74-1.33,1.19-2.01,2.74-2.01,4.69v24.22c0,1.74.68,3.21,2.01,4.37,1.36,1.18,2.95,1.76,4.8,1.76h24.15v.17c1.11,0,2.21-.05,3.31-.08v.08c58.8,0,106.64-47.84,106.64-106.64S1340.07.54,1281.27.54Z"/>
    <path class="cls-2" d="M180.49,0h-29.47c-2.24,0-4.32,1.16-5.49,3.06l-52.07,99.29L41.39,3.06C40.22,1.16,38.14,0,35.9,0H6.43C2.88,0,0,2.87,0,6.39v139.75c0,3.53,2.88,6.39,6.43,6.39h28.5c3.55,0,6.43-2.86,6.43-6.39v-65.41l36.52,69.04c1.17,1.9,3.24,3.06,5.48,3.06h20.19c2.24,0,4.32-1.16,5.49-3.06l36.52-69.39v125.8c0,3.53,2.88,6.39,6.43,6.39h28.5c3.55,0,6.43-2.86,6.43-6.39V6.39c0-3.53-2.88-6.39-6.43-6.39"/>
  </g>
</svg>