<?xml version="1.0" encoding="UTF-8"?>
<svg id="Layer_2" data-name="Layer 2" xmlns="http://www.w3.org/2000/svg" viewBox="0 0 333.74 295.73">
  <defs>
    <style>
      .cls-1 {
        fill: #183eeb;
      }
    </style>
  </defs>
  <g id="Layer_2-2" data-name="Layer 2">
    <path class="cls-1" d="M45.14,295.73l30.06-59.45,159.56,55.43c18.3,9.28,40.67,1.94,49.94-16.38l45.9-98.77c4.11-8.88,4.19-19.13.17-28.05l-32.59-72.41c-3.54-7.85-9.97-14.06-17.95-17.35L146.48,3.86c-18.3-9.28-47.9-1.17-57.18,17.16L4.03,175.09c-6.18,12.84-5.21,27.98,2.59,39.9l38.51,80.74h.01ZM140.75,106.74l85.4,77.82c2.79,2.52,3.67,6.51,2.22,9.97l-2.84,6.76c-1.72,4.16-6.31,6.36-10.65,5.11l-108.69-31.34,34.56-68.32h0Z"/>
  </g>
</svg>