<?xml version="1.0" encoding="UTF-8"?>
<svg id="Layer_2" data-name="Layer 2" xmlns="http://www.w3.org/2000/svg" viewBox="0 0 334.83 526.64">
  <defs>
    <style>
      .cls-1 {
        fill: #fff;
      }
    </style>
  </defs>
  <g id="Layer_2-2" data-name="Layer 2">
    <g id="Layer_1-2" data-name="Layer 1-2">
      <g>
        <path class="cls-1" d="M15.24,499.47c-1.41-.63-3.1-.95-5.05-.95H.74v21.83h5.05v-6.02h4.4c1.95,0,3.64-.32,5.05-.95,1.41-.63,2.51-1.54,3.27-2.73.77-1.18,1.15-2.59,1.15-4.21s-.38-3.06-1.15-4.24c-.77-1.19-1.86-2.09-3.27-2.73h0ZM13.4,509.22c-.77.67-1.93,1-3.49,1h-4.12v-7.58h4.12c1.56,0,2.72.33,3.49,1,.77.67,1.15,1.6,1.15,2.81s-.38,2.11-1.15,2.77Z"/>
        <path class="cls-1" d="M27.55,505.89v-2.32h-4.65v16.78h4.86v-7.92c0-1.6.41-2.78,1.23-3.54s1.9-1.14,3.23-1.14c.19,0,.36,0,.53.02.17,0,.35.03.56.05v-4.49c-1.58,0-2.92.31-4.02.92-.73.41-1.28.99-1.75,1.65h0Z"/>
        <path class="cls-1" d="M53.25,511.96c0-1.7-.4-3.2-1.19-4.49-.79-1.29-1.88-2.3-3.27-3.04-1.39-.74-2.97-1.11-4.74-1.11s-3.37.37-4.76,1.11-2.47,1.76-3.27,3.06-1.2,2.79-1.2,4.48.4,3.14,1.2,4.44,1.89,2.32,3.27,3.07,2.97,1.12,4.76,1.12,3.35-.37,4.74-1.12,2.48-1.77,3.27-3.07,1.19-2.78,1.19-4.44h0ZM47.76,514.44c-.37.7-.88,1.23-1.53,1.61-.64.37-1.37.56-2.18.56s-1.54-.19-2.18-.56-1.16-.91-1.54-1.61-.58-1.52-.58-2.48.19-1.81.58-2.49.9-1.22,1.54-1.59,1.37-.56,2.18-.56,1.54.19,2.18.56,1.15.9,1.53,1.59.56,1.52.56,2.49-.19,1.78-.56,2.48Z"/>
        <path class="cls-1" d="M56.49,520.35c0,.81-.18,1.42-.55,1.82-.36.41-.85.61-1.45.61-.81,0-1.5-.2-2.06-.59l-1.31,3.52c.48.31,1.06.54,1.75.7.69.16,1.4.23,2.15.23,2.02,0,3.58-.57,4.68-1.72,1.1-1.14,1.65-2.68,1.65-4.61v-16.75h-4.86v16.78h0Z"/>
        <path class="cls-1" d="M58.92,495.81c-.89,0-1.62.26-2.18.78s-.84,1.16-.84,1.93.28,1.42.84,1.93c.56.52,1.29.78,2.18.78s1.65-.27,2.2-.8.83-1.2.83-2.01-.28-1.4-.84-1.89c-.56-.49-1.29-.73-2.18-.73h-.01Z"/>
        <path class="cls-1" d="M77.99,504.37c-1.32-.7-2.8-1.05-4.44-1.05s-3.23.37-4.58,1.11-2.42,1.76-3.2,3.06-1.17,2.79-1.17,4.48.4,3.14,1.18,4.44c.79,1.3,1.91,2.32,3.35,3.07,1.44.75,3.12,1.12,5.04,1.12,1.52,0,2.86-.23,4.02-.7,1.16-.47,2.13-1.14,2.9-2.01l-2.59-2.81c-.56.54-1.18.95-1.86,1.22s-1.46.4-2.35.4c-1,0-1.87-.18-2.6-.54-.74-.36-1.31-.89-1.72-1.59-.22-.38-.37-.79-.47-1.23h12.68c.02-.21.04-.43.06-.67s.03-.45.03-.64c0-1.81-.38-3.36-1.15-4.66-.77-1.3-1.81-2.3-3.13-2.99h0ZM71.38,507.55c.63-.36,1.37-.55,2.2-.55s1.56.18,2.18.55c.62.36,1.11.87,1.47,1.51.23.42.36.91.44,1.43h-8.2c.08-.52.21-1,.43-1.42.35-.66.85-1.16,1.48-1.53h0Z"/>
        <path class="cls-1" d="M91.35,507.88c.67-.37,1.41-.56,2.25-.56.77,0,1.48.19,2.14.56.65.37,1.2.96,1.64,1.75l3.77-2.03c-.62-1.37-1.59-2.43-2.9-3.16-1.31-.74-2.85-1.11-4.62-1.11s-3.42.37-4.83,1.11-2.52,1.76-3.32,3.06-1.2,2.79-1.2,4.48.4,3.15,1.2,4.46c.8,1.31,1.91,2.33,3.32,3.07,1.41.74,3.02,1.11,4.83,1.11s3.31-.37,4.62-1.11c1.31-.74,2.28-1.78,2.9-3.13l-3.77-2.06c-.44.81-.98,1.4-1.64,1.76-.66.36-1.37.55-2.14.55-.83,0-1.58-.19-2.25-.56s-1.19-.9-1.57-1.59-.58-1.52-.58-2.49.19-1.81.58-2.49.91-1.22,1.57-1.59v-.03Z"/>
        <path class="cls-1" d="M111.74,516.73c-.64,0-1.15-.19-1.53-.58s-.56-.93-.56-1.64v-7.2h4.18v-3.74h-4.18v-3.71h-4.86v3.71h-2.59v3.74h2.59v7.26c0,2,.55,3.5,1.65,4.51s2.64,1.51,4.62,1.51c.75,0,1.47-.09,2.17-.27s1.29-.44,1.79-.8l-1.31-3.43c-.54.42-1.2.62-1.96.62v.02Z"/>
        <path class="cls-1" d="M129.31,511.54c-.59-.34-1.25-.61-1.98-.8s-1.45-.33-2.17-.42c-.72-.09-1.38-.2-1.98-.33-.6-.13-1.09-.29-1.45-.5s-.55-.52-.55-.93c0-.46.25-.83.75-1.12s1.29-.44,2.37-.44c.77,0,1.56.09,2.38.27s1.64.5,2.45.98l1.62-3.46c-.79-.48-1.78-.84-2.96-1.09-1.19-.25-2.35-.37-3.49-.37-1.62,0-3.02.23-4.18.7s-2.05,1.11-2.67,1.92c-.61.81-.92,1.75-.92,2.81,0,.96.18,1.73.55,2.34.36.6.85,1.08,1.45,1.43.6.35,1.27.62,2,.8s1.45.32,2.17.42,1.38.21,1.98.31c.6.11,1.09.26,1.45.45.36.2.55.49.55.89,0,.48-.23.85-.7,1.12-.47.27-1.26.41-2.39.41-1.02,0-2.05-.15-3.1-.45-1.05-.3-1.96-.69-2.73-1.17l-1.62,3.49c.77.52,1.81.95,3.13,1.29,1.32.34,2.7.51,4.13.51,1.68,0,3.11-.23,4.29-.69,1.18-.46,2.07-1.09,2.7-1.89s.93-1.72.93-2.76c0-.96-.19-1.73-.56-2.32s-.86-1.06-1.45-1.4h0Z"/>
        <path class="cls-1" d="M149.19,504.38c.62-.62,1.36-1.1,2.21-1.43s1.79-.5,2.81-.5c1.08,0,2.08.22,2.99.64s1.75,1.07,2.49,1.92l3.24-2.99c-1.04-1.27-2.32-2.23-3.85-2.89-1.53-.65-3.24-.98-5.13-.98-1.7,0-3.27.28-4.71.83-1.43.55-2.69,1.34-3.76,2.35-1.07,1.02-1.9,2.22-2.49,3.59-.59,1.37-.89,2.88-.89,4.52s.3,3.15.89,4.52,1.42,2.57,2.48,3.59,2.31,1.8,3.76,2.35c1.44.55,3.01.83,4.69.83,1.91,0,3.63-.33,5.16-1s2.81-1.63,3.85-2.9l-3.24-2.99c-.75.87-1.58,1.52-2.49,1.95s-1.91.64-2.99.64c-1.02,0-1.95-.17-2.81-.5-.85-.33-1.59-.81-2.21-1.43-.62-.62-1.11-1.36-1.45-2.21-.34-.85-.51-1.8-.51-2.84s.17-1.99.51-2.84.83-1.59,1.45-2.22h0Z"/>
        <path class="cls-1" d="M177.85,504.43c-1.39-.74-2.97-1.11-4.74-1.11s-3.37.37-4.75,1.11-2.47,1.76-3.27,3.06-1.2,2.79-1.2,4.48.4,3.14,1.2,4.44,1.89,2.32,3.27,3.07,2.97,1.12,4.75,1.12,3.35-.37,4.74-1.12,2.48-1.77,3.27-3.07c.79-1.3,1.19-2.78,1.19-4.44s-.4-3.2-1.19-4.49c-.79-1.29-1.88-2.3-3.27-3.04h0ZM176.82,514.44c-.37.7-.88,1.23-1.53,1.61-.65.37-1.37.56-2.18.56s-1.54-.19-2.18-.56-1.16-.91-1.54-1.61c-.38-.7-.58-1.52-.58-2.48s.19-1.81.58-2.49c.38-.69.9-1.22,1.54-1.59s1.37-.56,2.18-.56,1.54.19,2.18.56,1.15.9,1.53,1.59.56,1.52.56,2.49-.19,1.78-.56,2.48Z"/>
        <path class="cls-1" d="M210.57,504.12c-1.03-.53-2.21-.8-3.54-.8-1.6,0-3.02.39-4.26,1.15-.71.44-1.28,1-1.77,1.62-.39-.65-.89-1.19-1.51-1.61-1.15-.78-2.5-1.17-4.04-1.17-1.37,0-2.59.3-3.66.89-.63.35-1.14.82-1.6,1.36v-2h-4.65v16.78h4.86v-8.42c0-1,.16-1.82.47-2.46.31-.64.75-1.13,1.31-1.45s1.2-.48,1.9-.48c1.02,0,1.8.32,2.35.97s.83,1.64.83,2.99v8.86h4.87v-8.42c0-1,.15-1.82.47-2.46s.75-1.13,1.31-1.45,1.2-.48,1.9-.48c1.02,0,1.81.32,2.37.97s.84,1.64.84,2.99v8.86h4.86v-9.6c0-1.7-.3-3.1-.89-4.19s-1.4-1.9-2.43-2.43v-.02Z"/>
        <path class="cls-1" d="M243.28,504.12c-1.03-.53-2.21-.8-3.54-.8-1.6,0-3.02.39-4.26,1.15-.71.44-1.28,1-1.77,1.62-.39-.65-.89-1.19-1.51-1.61-1.15-.78-2.5-1.17-4.04-1.17-1.37,0-2.59.3-3.66.89-.63.35-1.14.82-1.6,1.36v-2h-4.65v16.78h4.86v-8.42c0-1,.16-1.82.47-2.46.31-.64.75-1.13,1.31-1.45s1.2-.48,1.9-.48c1.02,0,1.8.32,2.35.97s.83,1.64.83,2.99v8.86h4.87v-8.42c0-1,.15-1.82.47-2.46s.75-1.13,1.31-1.45,1.2-.48,1.9-.48c1.02,0,1.81.32,2.37.97s.84,1.64.84,2.99v8.86h4.86v-9.6c0-1.7-.3-3.1-.89-4.19s-1.4-1.9-2.43-2.43v-.02Z"/>
        <path class="cls-1" d="M263.01,511.87c0,1.02-.17,1.87-.5,2.54s-.79,1.17-1.37,1.5c-.58.32-1.25.49-2,.49-1.08,0-1.92-.33-2.51-.98-.59-.66-.89-1.68-.89-3.07v-8.76h-4.86v9.48c0,1.73.3,3.14.9,4.26s1.45,1.94,2.54,2.48,2.33.81,3.73.81c1.29,0,2.48-.3,3.57-.89.65-.35,1.17-.84,1.64-1.4v2.03h4.62v-16.78h-4.86v8.29h-.01Z"/>
        <path class="cls-1" d="M286.16,504.12c-1.05-.53-2.24-.8-3.57-.8-1.43,0-2.71.3-3.84.9-.68.36-1.23.85-1.71,1.41v-2.06h-4.65v16.78h4.86v-8.3c0-1.04.17-1.89.51-2.56.34-.67.82-1.16,1.43-1.48s1.3-.48,2.07-.48c1.08,0,1.92.32,2.51.97s.89,1.64.89,2.99v8.86h4.87v-9.6c0-1.7-.3-3.1-.9-4.19s-1.43-1.9-2.48-2.43h0Z"/>
        <path class="cls-1" d="M296.37,495.81c-.89,0-1.62.26-2.18.78s-.84,1.16-.84,1.93.28,1.42.84,1.93c.56.52,1.29.78,2.18.78s1.65-.27,2.2-.8.83-1.2.83-2.01-.28-1.4-.84-1.89c-.56-.49-1.29-.73-2.18-.73h-.01Z"/>
        <rect class="cls-1" x="293.94" y="503.57" width="4.86" height="16.78"/>
        <path class="cls-1" d="M312.83,516.11c-.54.42-1.2.62-1.96.62-.64,0-1.15-.19-1.53-.58-.37-.39-.56-.93-.56-1.64v-7.2h4.18v-3.74h-4.18v-3.71h-4.86v3.71h-2.59v3.74h2.59v7.26c0,2,.55,3.5,1.65,4.51s2.64,1.51,4.62,1.51c.75,0,1.47-.09,2.17-.27s1.29-.44,1.79-.8l-1.31-3.43v.02Z"/>
        <path class="cls-1" d="M323.38,514.97l-4.71-11.39h-5.02l7.26,16.91-.06.14c-.33.75-.7,1.29-1.11,1.61-.4.32-.95.48-1.64.48-.48,0-.96-.09-1.45-.28-.49-.19-.92-.45-1.29-.78l-1.78,3.46c.54.48,1.24.85,2.09,1.12s1.72.4,2.59.4c1.02,0,1.95-.16,2.79-.47s1.61-.85,2.31-1.62,1.31-1.83,1.85-3.18l7.58-17.81h-4.68l-4.74,11.39v.02Z"/>
        <path class="cls-1" d="M150.9,379.4s.04-.01.06-.01.04.01.06.01h.06c5.09,0,7.92-1.7,11.25-7.04,4.52,4.59,12.25,8.17,23.25,8.17l3.27-5.66c2.7,3.08,6.35,4.46,11.31,4.53h.06s.06-.02.09-.02.06.02.09.02h.06c6.35-.06,10.68-2.14,13.19-6.72,3.14,4.59,8.48,6.66,16.4,6.72h.06s.04-.01.06-.01.04.01.06.01h1.32c16.02,0,25.95-5.84,34.43-10.49,4.59,9.61,13.82,10.49,22.3,10.49h1.32s.04-.01.06-.01.04.01.06.01h.06c4.84,0,7.6-1.57,10.81-6.41,5.28,5.4,17.47,10.05,27.83,10.05l6.41-11.43-4.34-24.13-8.8-2.32c-6.35.63-11.18,2.07-15.27,4.71-4.4,2.89-7.23,7.23-10.74,12.69-2.26,3.58-3.46,5.34-5.91,5.4h-.06s-.04.01-.06.01-.04-.01-.06-.01h-1.32c-5.47,0-10.37-.31-13.32-3.27,2.39-.82,4.77-1.32,7.29-1.32h3.27v-11.43h-9.55c-9.74,0-23.12-9.55-40.97-7.67v11.44c10.87-1.13,20.11,1.95,27.83,4.52-8.98,3.58-18.85,7.73-31.29,7.73h-1.44c-6.47-.06-9.24-3.2-9.24-10.3v-6.97h-10.81v6.97c0,7.1-2.76,10.24-9.61,10.3h-.12c-2.7-.06-4.84-2.39-5.65-6.35l-2.76-14.01-9.55-2.51c-5.02.63-8.67,1.57-12.38,3.58-5.28,2.83-8.99,7.35-13.01,13.89-2.2,3.58-3.39,5.34-5.91,5.4h-.06s-.04.01-.06.01-.04-.01-.06-.01h-13.7s-.04.01-.06.01-.04-.01-.06-.01h-20.25s-.04.01-.06.01-.04-.01-.06-.01h-13.7s-.04.01-.06.01-.04-.01-.06-.01h-13.7s-.04.01-.06.01-.04-.01-.06-.01h-13.7s-.04.01-.06.01-.04-.01-.06-.01h-13.7s-.04.01-.06.01-.04-.01-.06-.01h-13.7s-.04.01-.06.01-.04-.01-.06-.01h-17.15c7.41-4.84,14.26-9.99,14.26-16.96,0-10.75-8.86-14.33-18.72-14.33-6.79,0-12.31,1.51-15.08,2.7l-4.59,11.12,8.61,16.78c-7.35,4.71-14.01,10.75-14.01,19.79,0,10.75,8.86,18.03,18.28,19.92,8.42,1.7,18.22.5,25.13-1.57v-11.06c-7.92,1.7-11.75,2.01-14.45,2.01-10.24,0-18.16-3.2-18.16-9.93,0-4.34,3.46-7.98,8.11-11.44,3.27,3.39,7.48,4.4,15.64,4.4h12.13s.04-.01.06-.01.04.01.06.01h13.7s.04-.01.06-.01.04.01.06.01h13.7s.04-.01.06-.01.04.01.06.01h13.7s.04-.01.06-.01.04.01.06.01h13.7s.04-.01.06-.01.04.01.06.01h13.7s.04-.01.06-.01.04.01.06.01h20.25s.04-.01.06-.01.04.01.06.01h13.73ZM312.16,358.16c2.26-1.51,5.09-2.39,8.86-2.83l2.64,15.58c-9.17-1.19-14.2-3.77-17.28-5.78,1.64-3.08,3.39-5.34,5.78-6.97ZM174.27,357.79c2.13-1.26,4.71-2.01,8.04-2.2l1.57,7.6c.56,2.76,1.32,5.15,2.2,7.16-9.3-.57-13.89-3.9-17.28-6.97,1.51-2.39,3.2-4.27,5.47-5.59ZM21.53,358.91l-5.78-10.68c2.58-.38,5.28-.63,8.29-.63,6.28,0,10.18,1.82,10.18,4.27,0,3.83-4.84,6.91-10.87,10.37,0,0-1.82-3.33-1.82-3.33Z"/>
        <path class="cls-1" d="M203.86,338c0,2.83,2.2,5.03,5.03,5.03s5.15-2.2,5.15-5.03-2.2-5.15-5.15-5.15-5.03,2.2-5.03,5.15Z"/>
        <path class="cls-1" d="M215.79,338c0,2.83,2.2,5.03,5.03,5.03s5.15-2.2,5.15-5.03-2.2-5.15-5.15-5.15-5.03,2.2-5.03,5.15Z"/>
        <path class="cls-1" d="M252.73,390.83c0,3.2,2.45,5.65,5.65,5.65s5.78-2.45,5.78-5.65-2.45-5.78-5.78-5.78-5.65,2.45-5.65,5.78h0Z"/>
        <path class="cls-1" d="M0,462.45c0,10.74,8.86,18.03,18.28,19.92,8.42,1.7,18.22.5,25.13-1.57v-11.06c-7.92,1.7-11.75,2.01-14.45,2.01-10.24,0-18.16-3.2-18.16-9.93,0-4.33,3.46-7.98,8.11-11.43,3.27,3.39,7.48,4.4,15.64,4.4h12.13s.04-.01.06-.01.04.01.06.01h13.7s.04-.01.06-.01.04.01.06.01h13.7s.04-.01.06-.01.04.01.06.01h13.7s.04-.01.06-.01.04.01.06.01h.06c13.95-.06,19.98-6.66,19.98-21.74v-10.74h-10.81v10.74c0,7.1-2.76,10.24-9.17,10.31h-.06s-.04.01-.06.01-.04-.01-.06-.01h-13.7s-.04.01-.06.01-.04-.01-.06-.01h-13.7s-.04.01-.06.01-.04-.01-.06-.01h-13.7s-.04.01-.06.01-.04-.01-.06-.01h-17.15c7.41-4.84,14.26-9.99,14.26-16.97,0-10.74-8.86-14.33-18.72-14.33-6.79,0-12.31,1.51-15.08,2.7l-4.59,11.12,8.61,16.78C6.66,447.37,0,453.4,0,462.45h0ZM23.12,422.99c6.28,0,10.18,1.82,10.18,4.27,0,3.83-4.84,6.91-10.87,10.37l-1.82-3.33-5.78-10.68c2.58-.38,5.28-.63,8.29-.63Z"/>
        <path class="cls-1" d="M98.61,460.44c-2.83,0-5.03,2.2-5.03,5.15s2.2,5.03,5.03,5.03,5.15-2.2,5.15-5.03-2.2-5.15-5.15-5.15Z"/>
        <path class="cls-1" d="M81.65,465.59c0,2.83,2.2,5.03,5.03,5.03s5.15-2.2,5.15-5.03-2.2-5.15-5.15-5.15-5.03,2.2-5.03,5.15Z"/>
        <path class="cls-1" d="M131.43,424.31l-10.43,2.76,3.96,24.5c1.95,11.88-3.39,12.38-12.88,12.75l.19,11.19c17.15-.69,26.33-7.16,23.31-25.7l-4.15-25.51h0Z"/>
        <path class="cls-1" d="M193.11,413.38c0,2.83,2.2,5.03,5.03,5.03s5.15-2.2,5.15-5.03-2.2-5.15-5.15-5.15-5.03,2.2-5.03,5.15Z"/>
        <path class="cls-1" d="M210.08,418.41c2.95,0,5.15-2.2,5.15-5.03s-2.2-5.15-5.15-5.15-5.03,2.2-5.03,5.15,2.2,5.03,5.03,5.03Z"/>
        <path class="cls-1" d="M208.63,402.7c0-2.58-1.95-4.52-4.52-4.52s-4.4,1.95-4.4,4.52,1.95,4.4,4.4,4.4c2.58,0,4.52-1.95,4.52-4.4Z"/>
        <path class="cls-1" d="M282.13,454.78s.04-.01.06-.01.04.01.06.01h.06c12.94.06,25.01,5.78,27.77,7.54l3.33-10.93c-2.14-1.38-5.65-3.02-9.99-4.46,1.32-3.27,1.95-6.91,1.95-10.43v-37.01h-10.81v37.01c0,2.64-.38,5.34-1.07,7.92-3.58-.69-7.41-1.07-11.18-1.07h-.06s-.04.01-.06.01-.04-.01-.06-.01h-13.7s-.04.01-.06.01-.04-.01-.06-.01h-13.7s-.04.01-.06.01-.04-.01-.06-.01h-13.82c-6.47-.06-9.24-3.2-9.24-10.31v-10.74h-10.81v16.46c0,4.52-2.95,5.84-5.72,5.84-2.26,0-5.34-1.32-5.34-5.84v-12.06h-10.81v9.55c0,5.15-2.89,8.36-8.98,8.36-3.2,0-5.34-1.07-6.66-2.76,1.13-2.76,2.14-5.97,3.08-9.74l1.01-4.02-10.18-2.76-1.95,6.79c-1.76,6.16-3.02,11.25-8.04,11.25h-.81c-6.47-.06-9.24-3.2-9.24-10.31v-33.55h-10.81v33.55c0,15.08,6.03,21.68,19.98,21.74h.06s.04-.01.06-.01.04.01.06.01h.06c5.22,0,9.17-1.7,12.25-5.28,2.39,3.64,6.72,6.53,13.01,6.53,5.15,0,8.42-2.39,10.24-6.03,2.45,3.58,6.41,6.03,12.25,6.03,5.15,0,8.8-2.7,10.87-6.91,3.2,3.83,8.36,5.59,15.58,5.65h.06s.04-.01.06-.01.04.01.06.01h13.7s.04-.01.06-.01.04.01.06.01h13.7s.04-.01.06-.01.04.01.06.01h13.72Z"/>
        <rect class="cls-1" x="320.9" y="399.49" width="10.81" height="55.29"/>
        <path class="cls-1" d="M45.88,295.73l30.06-59.45,159.56,55.43c18.3,9.28,40.67,1.94,49.94-16.38l45.9-98.77c4.11-8.88,4.19-19.13.17-28.05l-32.59-72.41c-3.54-7.85-9.97-14.06-17.95-17.35L147.22,3.86c-18.3-9.28-47.9-1.17-57.18,17.16L4.77,175.09c-6.18,12.84-5.21,27.98,2.59,39.9l38.51,80.74h.01ZM141.49,106.74l85.4,77.82c2.79,2.52,3.67,6.51,2.22,9.97l-2.84,6.76c-1.72,4.16-6.31,6.36-10.65,5.11l-108.69-31.34,34.56-68.32h0Z"/>
      </g>
    </g>
  </g>
</svg>