<?xml version="1.0" encoding="UTF-8"?>
<svg id="Layer_2" data-name="Layer 2" xmlns="http://www.w3.org/2000/svg" viewBox="0 0 1183.57 428.18">
  <defs>
    <style>
      .cls-1 {
        fill: #fff;
      }
    </style>
  </defs>
  <g id="Layer_1-2" data-name="Layer 1">
    <path class="cls-1" d="M1047.16,0h-155.36c-75.34,0-136.41,61.07-136.41,136.41v155.36c0,75.34,61.07,136.41,136.41,136.41h291.77V136.41c0-75.34-61.07-136.41-136.41-136.41ZM900.83,308.93l-46.25,13.55v-185.47l46.25,13.58v158.34ZM993.06,308.95l-46.43,13.53V106.07l46.43,13.64v189.24ZM1085.32,282.07l-46.25,13.51v-128.34l46.25,13.59v101.24Z"/>
    <g>
      <path class="cls-1" d="M514.86,245.99c3.21-9.63,4.17-27.6-5.13-29.53-11.55-2.57-28.57,22.47-14.76,32.42,1.6.96,5.78,3.85,8.35,5.78-7.69,8.98-31.1,23.12-42.04,29.23l11.54-1.32c10.27-1.93,27.92-3.85,35.95-24.39,2.57,1.93,5.78,4.81,7.38,6.42l1.28-.32,2.89-7.06c2.25-4.49-.64-7.38-5.46-11.23ZM509.08,242.46c-8.99-5.14-13.48-8.67-13.48-8.67,6.74-8.02,16.37-7.06,13.48,8.67ZM461.22,283.9v.02s.04-.02.06-.03h-.06Z"/>
      <path class="cls-1" d="M342.11,127.53c0,13.52-23.71,40.08-57.72,40.08l4.42,3.12c9.74,6.74,18.58,10.21,26.29,10.76,20.97,1.49,33.63-18.63,33.63-53.27s-21.66-61.2-21.66-61.2l-14.56,20.6c11.85,11.5,29.6,29.81,29.6,39.91h0Z"/>
      <path class="cls-1" d="M120.45,162.21c-.7,24.04,15.33,51.21,52.61,51.21,12.7,0,23.71-4.61,32.87-10.36,13.94-8.75,23.01-22.4,23.01-22.4-12.86,2.67-32.53,3.77-47.52,3.79-28.05.05-53.65-2.76-53.65-20.69s24.43-35.4,58.92-47.59c0,26.13,5.21,47.59,47.02,47.59h15.09c41.81,0,48.77-20.9,48.77-44.94,0-27.94-15.63-51.94-15.63-51.94l-14.62,20.59c12.89,12.19,22.24,27.87,22.24,34.84,0,5.92-5.58,11.85-48.43,11.85h-5.27c-42.85,0-42.91-5.92-42.91-19.86l17.07-5.23,4.97-29.18c-4.18,1.39-12.29,4.09-16.82,5.83-7.66,2.79-14.98,5.57-23.34,7.32-20.21,4.18-43.9-4.88-43.9-12.89,0-4.18,12.19-16.03,33.1-16.03,14.63,0,27.17,6.27,31.36,9.06,0,0-5.14-34.84-35.19-34.84-21.6,0-36.23,20.55-36.23,41.46,0,16.72,6.27,29.61,18.81,36.58-15.68,14.98-23.02,30.15-22.32,45.83h-.01Z"/>
      <polygon class="cls-1" points="500.91 36.64 482.75 21.31 468.17 38.41 486.69 53.75 500.91 36.64"/>
      <path class="cls-1" d="M625.17,87.64c-14.63-1.39-27.17,13.94-39.02,31.01-4.53,6.62-14.75,14.98-31.82,14.98-4.88,0-15.97-1.53-19.1-4.67l1.86-29.17-6.33,3.88c-2.09,20.9-2.41,29.96-19.83,29.96-8.01,0-12.06-.89-17.29-4.03l2.89-29.23-5.94,3.59c-1.57,7.32-3.78,14.49-6.45,20.67-5.45,12.63-43.29,10.4-43.27,3.76l8.22-23.16-4.08.7s-3.93,9.54-14.44,17.42c-7.4,5.55-9.52,10.09-24.36,10.09-13.59,0-24.04-2.44-24.04-17.07l-.35-96.41-19.16,27.08c4.18,20.9,7.32,40.06,7.32,72.47,0,36.23,14.98,44.25,35.88,44.25h.01c21.25,0,23.52-9.57,28.74-21.77,2.09,14.28,10.8,21.95,27.52,21.95,8.71,0,18.28-4.03,23.5-12.74,4.18,6.62,11.34,12.74,20.05,12.74,9.75,0,16.03-3.48,21.6-12.19,5.23,7.32,13.24,12.19,26.13,12.19,17.77,0,28.57-12.54,33.79-24.74,0,4.53,1.04,8.01,2.44,9.41,8.71,6.62,26.48,15.86,44.59,19.34,9.76-21.25,11.15-32.93,11.15-41.64,0-20.55-8.71-37.28-20.21-38.67ZM597.3,122.84c5.23-5.57,12.54-12.19,22.3-9.41,10.45,3.14,14.63,14.98,14.63,24.04-16.03-2.79-32.05-10.45-36.93-14.63Z"/>
      <polygon class="cls-1" points="499.13 46.45 487.16 60.77 470.73 47.3 456.51 64.42 475.03 79.76 487 65.44 503.43 78.91 518 62.09 499.13 46.45"/>
      <path class="cls-1" d="M190.82,257.04l-11.66,27.42c15.9,9.02,44.06,25.09,44.31,35.54.14,5.57-8.47,9.62-29.03,10.12-18.81.46-32.45-1.15-29.36-17.75h0c-2.31,5.28-3.82,14.73-3.66,21,.4,16.37,1.29,26.83,33.42,26.67,21.95-.11,36.58-12.78,35.9-40.64-.63-25.77-18.98-47.2-39.91-62.36h-.01Z"/>
      <path class="cls-1" d="M644.97,302.7l-8.24-100.32-19.16,27.22c2.75,24.26,7.95,71.01,8.99,99.92.81,22.48-4.29,42.73-4.29,42.73,21.71-32.15,22.92-58.46,22.7-69.55h0Z"/>
      <polygon class="cls-1" points="41.96 216.28 29.79 230.35 14.39 216.72 0 233.13 17.76 248.62 29.59 234.53 45.33 248.18 59.37 231.76 41.96 216.28"/>
      <polygon class="cls-1" points="280.17 180.41 267.98 194.47 252.59 180.82 238.2 197.22 255.94 212.72 268.13 198.66 283.51 212.31 297.56 195.89 280.17 180.41"/>
      <polygon class="cls-1" points="119.21 376.84 107.02 390.9 91.63 377.26 77.24 393.66 94.98 409.16 107.17 395.1 122.56 408.74 136.6 392.33 119.21 376.84"/>
      <path class="cls-1" d="M132.03,263.47l-13.81,20.59c12.89,12.19,20.09,27.87,20.09,34.49,0,6.27-8.01,11.85-40.76,11.85-16.03,0-24.04-6.97-24.04-21.6l-.7-67.24h-3.83c-6.97,26.83-17.42,28.92-28.92,35.54-11.5,6.62-22.3,12.89-27.87,26.83l-12.19,27.87,31.01,6.27c11.85,2.09,25.43-.7,29.96-13.59l1.39-4.18c.35,22.3,10.45,39.72,40.76,39.72,29.26-.35,43.2-20.9,43.2-44.94,0-19.86-5.23-35.23-14.29-51.61ZM47.04,311.93l-24.74-4.88c12.89-5.23,31.7-14.28,39.37-30.31l.7,33.1c-1.74,2.09-6.27,4.18-15.33,2.09Z"/>
      <path class="cls-1" d="M604.85,243.64c-8.9-10.7-14.89-23.8-16.99-40.09l-20.12,28.08c10.1,32.51,15.53,64.13,19.02,94.34-3.66,2.72-14.79,4.21-24.88,3.95-2.75-.04-5.86-.62-8.58-1.48-2.71-.86-5.04-2.02-6.24-3.22l1.86-29.17-6.33,3.88c-2.09,20.9-2.41,29.96-19.83,29.96-8.01,0-12.06-.89-17.29-4.03l2.89-29.23-5.94,3.59c-1.57,7.32-3.78,14.49-6.45,20.67-5.45,12.63-43.29,10.4-43.27,3.76l8.22-23.16-4.08.7s-3.93,9.54-14.44,17.42c-6.92,5.19-16.74,9.6-30.12,10.16-2.64.14-5.28.21-7.83.21-6.76,0-12.88-.51-16.61-1.68,9.06-9.06,19.51-25.08,19.51-38.67,0-38.67-62.92-25.19-76.86-17.18l-11.57,33.52c2.83-1.57,9.3-3.89,17.79,3.21,5.47,4.57,11.95,10.94,17.69,16.68-13.94,3.48-20.9,4.02-47.03,4.02-4.53-27.17-18.12-45.83-31.01-45.83-16.03,0-27.52,20.75-27.52,43.74,0,21.25,9.76,32.21,32.4,32.21h20.21c-2.79,14.98-28.11,28.22-76.3,28.22l2.5,3.48c27.52,29.61,74.85,22.99,80.42-31.7,22.99,0,47.31-4.74,62.98-16.93,11.8,11.18,18.48,17.13,38.33,17.03,19.21-.09,32.1-10.28,37.06-21.86,2.09,14.28,10.8,21.95,27.52,21.95,8.71,0,18.28-4.03,23.5-12.74,4.18,6.62,11.34,12.74,20.05,12.74,9.75,0,16.03-3.48,21.6-12.19,3.47,6.84,12.17,12.13,22.19,12.15,2.25-.19,4.47-.69,6.63-1.47,2.16-.78,4.28-1.86,6.31-3.19,1.51-.99,2.97-2.12,4.39-3.38,7.46-6.66,13.58-17.06,17.12-29.89,5.78-20.94,1.73-42.45-4.16-66.93l13.26-11.65ZM278.1,329.89c-11.85,0-21.94-1.05-21.94-4.53,0-6.97,8.71-15.17,18.81-15.17,12.19,0,20.55,9.95,25.08,19.7h-21.95ZM370.94,320.26h-.01c-8.01-7.66-20.71-18.79-30.81-24.01,41.11-7.32,57.14.35,57.14,2.44,0,5.57-13.43,16-26.32,21.57Z"/>
    </g>
  </g>
</svg>