<?xml version="1.0" encoding="UTF-8"?>
<svg id="Layer_2" data-name="Layer 2" xmlns="http://www.w3.org/2000/svg" viewBox="0 0 394.64 168.11">
  <defs>
    <style>
      .cls-1 {
        fill: #fff;
      }
    </style>
  </defs>
  <g id="Layer_2-2" data-name="Layer 2">
    <g id="Layer_1-2" data-name="Layer 1-2">
      <g>
        <g>
          <rect class="cls-1" x="54.99" y="163.35" width="31.78" height="2.06"/>
          <path class="cls-1" d="M7.65,145.97c-.31-.22-.65-.4-1.01-.54-.37-.14-.74-.26-1.11-.37-.38-.1-.72-.21-1.03-.31-.31-.1-.56-.23-.74-.39-.18-.15-.27-.35-.27-.6s.09-.42.28-.54.44-.18.75-.18c.27,0,.59.04.95.13.36.09.74.21,1.13.37.39.15.76.34,1.1.56l.97-2.03c-.52-.33-1.12-.6-1.82-.8-.69-.21-1.4-.31-2.13-.31-.79,0-1.48.12-2.08.37s-1.06.6-1.38,1.06c-.32.46-.49.99-.49,1.6,0,.51.09.93.27,1.27.18.34.43.61.74.82s.65.38,1.02.52.74.25,1.11.35c.37.1.71.2,1.02.3s.56.23.75.39c.19.15.28.35.28.6,0,.28-.11.49-.33.64s-.52.22-.91.22c-.34,0-.72-.06-1.15-.19-.43-.13-.86-.3-1.28-.53s-.8-.49-1.14-.79l-1,1.98c.39.33.84.61,1.33.85.49.24,1.01.42,1.56.55s1.1.19,1.65.19c.73,0,1.4-.12,2-.34.6-.23,1.08-.57,1.44-1.03.36-.45.53-1.02.53-1.68,0-.52-.09-.95-.28-1.29s-.44-.63-.75-.85h.02Z"/>
          <path class="cls-1" d="M13.15,141.16l-4.24,9.87h2.65l.69-1.77h4.26l.68,1.77h2.74l-4.14-9.87h-2.65,0ZM13.01,147.32l1.39-3.58,1.37,3.58h-2.76Z"/>
          <path class="cls-1" d="M22.5,150.69c.68.35,1.47.52,2.38.52s1.7-.17,2.36-.52,1.18-.84,1.54-1.48.54-1.39.54-2.25v-5.8h-2.58v5.8c0,.65-.17,1.16-.51,1.53s-.79.56-1.34.56-1.02-.19-1.39-.56c-.37-.38-.56-.88-.56-1.52v-5.8h-2.58v5.8c0,.86.19,1.61.56,2.25.37.64.89,1.13,1.57,1.48h0Z"/>
          <path class="cls-1" d="M39.13,142.54c-.46-.44-1.02-.77-1.66-1.01-.64-.24-1.35-.36-2.13-.36h-4.25v9.87h4.15c.8,0,1.52-.12,2.18-.35.66-.23,1.22-.57,1.69-1.01.47-.44.83-.96,1.09-1.56.26-.6.39-1.27.39-2.01s-.13-1.4-.38-2-.61-1.12-1.08-1.56h0ZM37.77,147.28c-.12.35-.3.65-.53.91-.23.25-.5.45-.81.58-.31.14-.65.2-1.03.2h-1.75v-5.74h1.62c.39,0,.75.07,1.08.2.32.14.61.33.84.59.24.26.42.56.56.92.13.35.2.74.2,1.18s-.06.81-.18,1.16h0Z"/>
          <rect class="cls-1" x="41.87" y="141.16" width="2.58" height="9.87"/>
          <path class="cls-1" d="M58.46,144.63c0-1.1-.35-1.95-1.04-2.55-.69-.61-1.67-.91-2.93-.91h-4.34v9.87h2.58v-2.74h1.76c1.26,0,2.23-.32,2.93-.96.69-.64,1.04-1.54,1.04-2.7h0ZM55.58,145.87c-.29.26-.69.39-1.22.39h-1.63v-3.07h1.63c.53,0,.93.13,1.22.38s.43.63.43,1.13-.14.91-.43,1.17Z"/>
          <path class="cls-1" d="M68.27,144.63c0-1.1-.36-1.95-1.07-2.55-.71-.61-1.73-.91-3.04-.91h-4.43v9.87h2.58v-2.74h1.91l1.45,2.75h2.91l-2.06-3.24c.26-.13.49-.29.7-.47.71-.64,1.07-1.54,1.07-2.7h-.02ZM62.31,143.19h1.86c.53,0,.93.13,1.22.38s.44.63.44,1.13-.15.91-.44,1.17-.7.39-1.22.39h-1.86v-3.07Z"/>
          <path class="cls-1" d="M78.43,142.46c-.48-.46-1.05-.82-1.69-1.07s-1.35-.38-2.12-.38-1.46.13-2.11.38-1.21.61-1.7,1.06c-.48.46-.86.99-1.13,1.61s-.4,1.29-.4,2.01.13,1.41.4,2.03c.27.62.64,1.17,1.13,1.63.48.46,1.05.83,1.7,1.08.65.26,1.35.39,2.11.39s1.48-.13,2.12-.39,1.21-.62,1.69-1.08.86-1.01,1.13-1.63c.27-.62.4-1.3.4-2.03s-.13-1.39-.4-2.01c-.27-.61-.64-1.15-1.13-1.61h0ZM77.11,147.25c-.14.36-.33.68-.57.94-.24.27-.53.48-.85.63-.32.15-.67.23-1.03.23s-.71-.08-1.04-.23-.62-.36-.87-.63-.45-.58-.59-.94-.21-.75-.21-1.16.07-.81.21-1.16.34-.66.58-.93.54-.47.87-.62.68-.22,1.05-.22.71.07,1.03.22.61.35.85.62c.24.27.43.58.57.93.14.35.2.74.2,1.16s-.07.8-.2,1.16Z"/>
          <path class="cls-1" d="M83.88,148.64c-.18.2-.43.3-.75.3-.28,0-.61-.09-.98-.27-.37-.18-.73-.46-1.09-.82l-1.18,1.72c.44.51.95.9,1.51,1.18.57.28,1.21.42,1.92.42,1.05,0,1.89-.29,2.51-.87s.93-1.4.93-2.46v-6.66h-5.97v2.08h3.38v4.52c0,.38-.09.68-.27.87h-.01Z"/>
          <polygon class="cls-1" points="91.06 147.09 95.76 147.09 95.76 145.08 91.06 145.08 91.06 143.19 96.27 143.19 96.27 141.16 88.49 141.16 88.49 151.03 96.41 151.03 96.41 149 91.06 149 91.06 147.09"/>
          <path class="cls-1" d="M100.76,143.99c.24-.26.53-.46.86-.61s.68-.22,1.06-.22c.43,0,.87.12,1.31.35.44.23.82.55,1.14.96l1.49-1.77c-.33-.35-.71-.65-1.14-.9s-.89-.45-1.38-.58c-.49-.14-.98-.2-1.46-.2-.75,0-1.45.13-2.09.38s-1.2.61-1.68,1.07-.85,1-1.11,1.61-.39,1.28-.39,2.01.13,1.41.39,2.03.63,1.17,1.09,1.63,1.01.83,1.64,1.08c.63.26,1.31.39,2.05.39.49,0,.98-.08,1.47-.23s.96-.36,1.41-.64.85-.6,1.21-.98l-1.51-1.59c-.35.36-.74.64-1.18.85s-.86.32-1.27.32c-.38,0-.73-.07-1.06-.22-.33-.15-.61-.35-.86-.61-.24-.26-.43-.57-.56-.92-.13-.35-.2-.73-.2-1.15s.07-.8.2-1.15c.13-.35.32-.66.56-.92h0Z"/>
          <polygon class="cls-1" points="112.37 151.03 112.37 143.25 115.33 143.25 115.33 141.16 106.87 141.16 106.87 143.25 109.8 143.25 109.8 151.03 112.37 151.03"/>
          <path class="cls-1" d="M123.12,145.97c-.31-.22-.65-.4-1.01-.54-.37-.14-.74-.26-1.11-.37-.38-.1-.72-.21-1.03-.31-.31-.1-.56-.23-.74-.39-.18-.15-.27-.35-.27-.6s.09-.42.28-.54.44-.18.75-.18c.27,0,.59.04.95.13.36.09.74.21,1.13.37.39.15.76.34,1.1.56l.97-2.03c-.52-.33-1.12-.6-1.82-.8-.69-.21-1.4-.31-2.13-.31-.79,0-1.48.12-2.08.37s-1.06.6-1.38,1.06c-.32.46-.49.99-.49,1.6,0,.51.09.93.27,1.27s.43.61.74.82.65.38,1.02.52.74.25,1.11.35.71.2,1.02.3.56.23.75.39c.19.15.28.35.28.6,0,.28-.11.49-.33.64s-.52.22-.91.22c-.34,0-.72-.06-1.15-.19s-.86-.3-1.28-.53-.8-.49-1.14-.79l-1,1.98c.39.33.84.61,1.33.85.49.24,1.01.42,1.56.55.55.13,1.1.19,1.65.19.73,0,1.4-.12,2-.34s1.08-.57,1.44-1.03c.36-.45.53-1.02.53-1.68,0-.52-.09-.95-.28-1.29-.19-.35-.44-.63-.75-.85h.02Z"/>
          <polygon class="cls-1" points=".89 167.92 3.47 167.92 3.47 164.33 7.89 164.33 7.89 162.32 3.47 162.32 3.47 160.08 8.26 160.08 8.27 158.06 .89 158.06 .89 167.92"/>
          <path class="cls-1" d="M17.95,159.35c-.48-.46-1.05-.82-1.69-1.07-.64-.25-1.35-.38-2.12-.38s-1.46.13-2.11.38-1.21.61-1.7,1.06c-.48.46-.86.99-1.13,1.61s-.4,1.29-.4,2.01.13,1.41.4,2.03.64,1.17,1.13,1.63c.48.46,1.05.83,1.7,1.08s1.35.39,2.11.39,1.48-.13,2.12-.39,1.21-.62,1.69-1.08.86-1.01,1.13-1.63c.27-.62.4-1.3.4-2.03s-.13-1.39-.4-2.01c-.27-.61-.64-1.15-1.13-1.61h0ZM16.62,164.14c-.14.36-.33.68-.57.94-.24.27-.53.48-.85.63-.32.15-.67.23-1.03.23s-.71-.08-1.04-.23-.62-.36-.87-.63-.45-.58-.59-.94-.21-.75-.21-1.16.07-.81.21-1.16.34-.66.58-.93c.25-.27.54-.47.87-.62s.68-.22,1.05-.22.71.07,1.03.22.61.35.85.62c.24.27.43.58.57.93.14.35.2.74.2,1.16s-.07.8-.2,1.16Z"/>
          <path class="cls-1" d="M28.23,164.21c.71-.64,1.07-1.54,1.07-2.7s-.36-1.95-1.07-2.55c-.71-.61-1.73-.91-3.04-.91h-4.43v9.87h2.58v-2.74h1.91l1.45,2.75h2.91l-2.06-3.24c.26-.13.49-.29.7-.47h-.02ZM23.33,160.08h1.86c.53,0,.93.13,1.22.38.29.25.44.63.44,1.13s-.15.91-.44,1.17-.7.39-1.22.39h-1.86v-3.07Z"/>
          <path class="cls-1" d="M37.15,163.85c0,.65-.17,1.16-.51,1.53s-.79.56-1.34.56-1.02-.19-1.39-.56c-.37-.38-.56-.88-.56-1.52v-5.8h-2.58v5.8c0,.86.19,1.61.56,2.25.37.64.89,1.13,1.57,1.48.68.35,1.47.52,2.38.52s1.7-.17,2.36-.52c.67-.35,1.18-.84,1.54-1.48s.54-1.39.54-2.25v-5.8h-2.58v5.8h0Z"/>
          <polygon class="cls-1" points="47.15 163.87 44.29 158.06 41.49 158.06 41.49 167.92 43.78 167.92 43.78 161.6 46.32 166.94 47.98 166.94 50.5 161.6 50.51 167.92 52.79 167.92 52.79 158.06 49.99 158.06 47.15 163.87"/>
          <path class="cls-1" d="M93.81,163.81c.55-.55,1.01-1.1,1.37-1.65.36-.55.54-1.09.54-1.63s-.15-.98-.44-1.37c-.3-.38-.7-.68-1.22-.89-.52-.21-1.11-.32-1.77-.32-.72,0-1.43.13-2.11.39-.69.26-1.35.62-1.98,1.08l.99,1.86c.45-.38.91-.68,1.39-.9.48-.23.92-.34,1.32-.34.36,0,.63.08.83.23.2.15.3.36.3.63,0,.22-.09.47-.27.77s-.41.59-.69.88l-3.59,3.7v1.67h7.53v-2.04h-4.23l2.04-2.07h-.01Z"/>
          <path class="cls-1" d="M101.43,157.97c-1.42,0-2.5.43-3.26,1.29s-1.13,2.1-1.13,3.72.38,2.85,1.13,3.72c.76.87,1.84,1.3,3.26,1.3s2.47-.43,3.23-1.3c.76-.87,1.13-2.11,1.13-3.72s-.38-2.85-1.13-3.72c-.76-.86-1.83-1.29-3.23-1.29ZM102.75,165.39c-.28.49-.72.73-1.32.73s-1.05-.24-1.33-.73c-.28-.49-.42-1.29-.42-2.41s.14-1.92.42-2.4.72-.73,1.33-.73,1.04.24,1.32.73c.28.48.42,1.28.42,2.4s-.14,1.92-.42,2.41Z"/>
          <path class="cls-1" d="M112.22,163.81c.55-.55,1.01-1.1,1.37-1.65.36-.55.54-1.09.54-1.63s-.15-.98-.44-1.37c-.3-.38-.7-.68-1.22-.89-.52-.21-1.11-.32-1.77-.32-.72,0-1.43.13-2.11.39-.69.26-1.35.62-1.98,1.08l.99,1.86c.45-.38.91-.68,1.39-.9.48-.23.92-.34,1.32-.34.36,0,.63.08.83.23.2.15.3.36.3.63,0,.22-.09.47-.27.77s-.41.59-.69.88l-3.59,3.7v1.67h7.53v-2.04h-4.23l2.04-2.07h-.01Z"/>
          <path class="cls-1" d="M121.4,162.02c-.58-.25-1.25-.37-2.02-.37h-.89v-1.55h4.27v-2.04h-6.63v5.6c.16,0,.37-.02.62-.02s.52,0,.8-.02c.28,0,.53,0,.77,0h.52c.54,0,.95.11,1.21.32s.39.51.39.89-.14.69-.41.92c-.27.23-.65.34-1.14.34-.46,0-.92-.1-1.38-.3s-.89-.46-1.28-.78l-.96,1.82c.53.37,1.15.66,1.86.89s1.38.34,2.04.34c.83,0,1.54-.14,2.13-.42.6-.28,1.06-.68,1.39-1.19.33-.51.5-1.11.5-1.81,0-.58-.15-1.1-.46-1.55s-.75-.8-1.33-1.05h0Z"/>
          <path class="cls-1" d="M13.49,75.62c.34-.33.51-.75.51-1.27s-.17-.95-.51-1.3-.77-.51-1.3-.51-.95.17-1.29.51c-.34.34-.5.77-.5,1.3s.17.95.5,1.27c.34.33.76.49,1.29.49s.95-.16,1.3-.49Z"/>
          <path class="cls-1" d="M9.42,75.62c.34-.33.51-.75.51-1.27s-.17-.95-.51-1.3c-.34-.34-.77-.51-1.3-.51s-.95.17-1.29.51c-.34.34-.5.77-.5,1.3s.17.95.5,1.27c.34.33.76.49,1.29.49s.95-.16,1.3-.49Z"/>
          <path class="cls-1" d="M4.61,69.53c1.51.81,3.36,1.22,5.55,1.22,1.42,0,2.65-.16,3.71-.47s1.95-.73,2.68-1.25,1.32-1.1,1.78-1.72c.45-.63.78-1.26.98-1.9.2-.64.3-1.24.3-1.79,0-.32-.04-.62-.09-.92h51.06c1.42,0,2.83-.07,4.25-.2s2.76-.35,4.05-.66c.11-.03.21-.06.32-.09.82.22,1.7.4,2.65.55,1.82.27,3.81.4,5.99.4h1.3c1.31,0,2.44-.3,3.4-.86.3-.18.57-.38.83-.6.26.23.54.45.85.63.95.56,2.09.84,3.4.84h1.97c1.31,0,2.44-.3,3.4-.86.3-.18.57-.38.83-.6.26.23.54.45.85.63.95.56,2.09.84,3.4.84h.56c1.06,0,1.99-.15,2.79-.45.79-.29,1.54-.75,2.25-1.36.35.31.71.59,1.09.85.68.46,1.45.84,2.32,1.14s1.89.5,3.05.61,2.53.12,4.11.03c.34-.8.62-1.69.83-2.65s.31-1.89.31-2.78c0-1.12-.13-2.13-.4-3.04-.27-.91-.65-1.69-1.15-2.35s-1.1-1.16-1.8-1.52c-.7-.36-1.49-.54-2.37-.54s-1.7.14-2.4.42c-.71.28-1.35.66-1.92,1.12s-1.09.97-1.55,1.51c-.46.54-.89,1.08-1.3,1.6-.45.61-.86,1.09-1.23,1.44s-.76.59-1.17.73c-.41.13-.9.2-1.46.2h-.56c-.55,0-.98-.06-1.27-.17-.3-.11-.51-.31-.63-.58-.12-.28-.18-.65-.18-1.13v-13.23h-4.31v13.23c0,.48-.06.85-.18,1.13-.12.28-.33.47-.63.58-.3.11-.72.17-1.27.17h-1.97c-.55,0-.98-.06-1.27-.17-.3-.11-.51-.31-.63-.58-.12-.28-.18-.65-.18-1.13v-5.1h-4.31v5.1c0,.48-.06.85-.18,1.13-.12.28-.33.47-.63.58-.3.11-.72.17-1.27.17h-1.3c-.82,0-1.58,0-2.28-.02-.14,0-.26,0-.4,0,.23-.57.35-1.18.35-1.87,0-1.1-.28-2.07-.85-2.89-.57-.83-1.33-1.47-2.28-1.93s-2.01-.69-3.17-.69-2.2.23-3.15.7c-.95.47-1.71,1.11-2.28,1.93s-.85,1.77-.85,2.86c0,.68.12,1.3.35,1.88h-.34c-.72.02-1.51.03-2.36.03H18.07c-.64,0-1.25-.05-1.82-.15-.57-.1-1.06-.21-1.45-.35-.4-.13-.66-.27-.79-.4l-3.04,3.58c.48.48,1.05.87,1.68,1.2h0c.06.03.11.06.16.08.14.07.27.14.41.2.27.13.53.26.77.4.4.22.72.45.96.67.24.22.36.48.36.76,0,.3-.18.61-.53.93-.35.32-.91.59-1.69.8-.78.22-1.8.32-3.06.32-2.15,0-3.69-.4-4.64-1.2-.95-.8-1.42-2.12-1.42-3.97,0-.36.02-.72.06-1.1.04-.37.09-.8.17-1.3l-3.93-.78c-.09.57-.16,1.12-.2,1.67-.04.54-.07,1.07-.07,1.58,0,2.1.39,3.91,1.17,5.42.78,1.51,1.93,2.67,3.44,3.49h0ZM117.23,56.86c.43-.41.85-.72,1.25-.94.4-.22.77-.32,1.1-.32.45,0,.8.2,1.07.6s.4,1.04.4,1.9c0,.17,0,.33-.02.5h-.85c-1.07,0-1.99-.11-2.74-.31-.41-.11-.78-.27-1.11-.47.3-.36.6-.68.9-.96ZM77.49,55.23c.16-.23.4-.42.7-.58.31-.16.65-.23,1.04-.23s.73.07,1.02.2c.29.13.52.32.68.55s.25.49.25.77c0,.36-.16.68-.49.97-.3.27-.79.5-1.46.7-.67-.21-1.17-.45-1.47-.71-.34-.3-.5-.62-.5-.96,0-.24.08-.47.25-.7h-.02Z"/>
          <path class="cls-1" d="M77.2,48.46c.52,0,.95-.16,1.29-.49.34-.33.5-.75.5-1.27s-.17-.97-.5-1.31-.76-.5-1.29-.5-.97.17-1.31.5c-.34.34-.5.77-.5,1.31s.17.95.5,1.27c.34.33.77.49,1.31.49Z"/>
          <path class="cls-1" d="M81.26,48.46c.52,0,.95-.16,1.29-.49.34-.33.5-.75.5-1.27s-.17-.97-.5-1.31c-.34-.34-.76-.5-1.29-.5s-.97.17-1.31.5c-.34.34-.5.77-.5,1.31s.17.95.5,1.27c.34.33.77.49,1.31.49Z"/>
          <path class="cls-1" d="M95.08,48.91c.52,0,.95-.16,1.29-.49.34-.33.5-.75.5-1.27s-.17-.97-.5-1.31c-.34-.34-.76-.5-1.29-.5s-.97.17-1.31.5c-.34.34-.5.77-.5,1.31s.17.95.5,1.27c.34.33.77.49,1.31.49Z"/>
          <path class="cls-1" d="M91.01,48.91c.52,0,.95-.16,1.29-.49.34-.33.5-.75.5-1.27s-.17-.97-.5-1.31c-.34-.34-.76-.5-1.29-.5s-.97.17-1.31.5c-.34.34-.5.77-.5,1.31s.17.95.5,1.27c.34.33.77.49,1.31.49Z"/>
          <path class="cls-1" d="M56.6,97.11c-.34.34-.5.77-.5,1.3s.17.95.5,1.27c.34.33.76.49,1.29.49s.95-.16,1.3-.49c.34-.33.51-.75.51-1.27s-.17-.95-.51-1.3-.77-.51-1.3-.51-.95.17-1.29.51Z"/>
          <path class="cls-1" d="M63.54,82.81h-4.31v6.97H13.09c.25-.3.48-.62.67-.94.37-.63.56-1.29.56-1.99,0-.86-.29-1.61-.87-2.25s-1.39-1.13-2.43-1.49-2.23-.54-3.59-.54c-.82,0-1.56.06-2.24.18-.67.12-1.3.27-1.88.45l-2.17,3.53c.45,1.62,1.19,3.04,2.22,4.26.29.35.61.66.95.96-.58.39-1.14.8-1.66,1.24-.72.61-1.31,1.28-1.77,2.01-.45.73-.68,1.52-.68,2.37,0,.73.19,1.46.56,2.18s.9,1.38,1.59,1.98c.69.6,1.51,1.07,2.47,1.43s2.03.54,3.21.54c.86,0,1.72-.11,2.57-.32.85-.22,1.65-.54,2.41-.97l-1.45-4.2c-.46.1-.9.19-1.31.26-.41.07-.8.12-1.16.15-.37.03-.71.04-1.04.04-.8,0-1.47-.08-1.99-.25-.52-.16-.91-.37-1.16-.63-.25-.25-.38-.51-.38-.78,0-.25.1-.51.29-.77.19-.26.46-.53.8-.82.34-.28.73-.57,1.17-.87.27-.18.55-.37.83-.55,1.4.54,2.95.82,4.65.82h51.25v-12h.03ZM5.45,87.19c.45-.07.93-.11,1.42-.11.66,0,1.21.05,1.68.15.46.1.82.22,1.07.38.25.16.38.32.38.48s-.12.35-.36.56-.56.44-.96.68c-.21.13-.45.27-.69.41-.52-.07-1.01-.24-1.46-.5-.62-.37-1.13-.88-1.54-1.53-.07-.12-.14-.24-.2-.37.22-.06.45-.11.67-.15h-.01Z"/>
          <path class="cls-1" d="M61.95,100.17c.52,0,.95-.16,1.3-.49.34-.33.51-.75.51-1.27s-.17-.95-.51-1.3c-.34-.34-.77-.51-1.3-.51s-.95.17-1.29.51c-.34.34-.5.77-.5,1.3s.17.95.5,1.27c.34.33.76.49,1.29.49Z"/>
          <path class="cls-1" d="M68.72,94.83c0,.36-.08.66-.25.92-.16.25-.46.45-.88.6s-1.03.25-1.82.29l.8,4.76c1.33-.09,2.47-.41,3.43-.97s1.71-1.32,2.24-2.27.79-2.06.79-3.33v-12.03h-4.31s0,12.03,0,12.03Z"/>
          <path class="cls-1" d="M97.85,81c.52,0,.95-.17,1.3-.51s.51-.77.51-1.3-.17-.95-.51-1.27c-.34-.33-.77-.49-1.3-.49s-.95.16-1.29.49c-.34.33-.5.75-.5,1.27s.17.95.5,1.3c.34.34.76.51,1.29.51Z"/>
          <path class="cls-1" d="M97.05,76.76c.32-.32.48-.73.48-1.24s-.16-.9-.48-1.22-.73-.48-1.24-.48-.92.16-1.24.48-.48.73-.48,1.22.16.92.48,1.24.73.48,1.24.48.92-.16,1.24-.48Z"/>
          <path class="cls-1" d="M92.49,77.91c-.34.33-.5.75-.5,1.27s.17.95.5,1.3c.34.34.76.51,1.29.51s.95-.17,1.3-.51.51-.77.51-1.3-.17-.95-.51-1.27c-.34-.33-.77-.49-1.3-.49s-.95.16-1.29.49Z"/>
          <path class="cls-1" d="M123.81,84.82c-.5-.66-1.1-1.16-1.8-1.52-.7-.36-1.49-.54-2.37-.54s-1.7.14-2.4.42c-.71.28-1.35.66-1.92,1.12s-1.09.97-1.55,1.51c-.46.54-.89,1.08-1.3,1.6-.45.61-.86,1.09-1.23,1.44-.37.35-.76.59-1.17.73-.41.13-.9.2-1.46.2h-.74c-.55,0-.98-.06-1.27-.17-.3-.11-.51-.31-.63-.58-.12-.28-.18-.65-.18-1.13v-5.1h-4.31v5.1c0,.69-.19,1.2-.57,1.53-.38.34-.81.5-1.29.5s-.89-.17-1.29-.51c-.16-.14-.28-.31-.37-.5v-5h-4.31v3.98c0,.69-.19,1.2-.57,1.53-.38.34-.81.5-1.29.5s-.89-.17-1.29-.51c-.22-.19-.38-.44-.47-.74.02-.25.04-.51.04-.78v-2.91h-4.31v2.91c0,.48-.06.85-.18,1.13s-.33.47-.63.58c-.3.11-.72.17-1.27.17h-3.64v-15.11h-4.31v20.14h7.96c1.31,0,2.44-.28,3.4-.84.59-.35,1.09-.8,1.51-1.33.46.67,1.02,1.19,1.68,1.54.79.42,1.62.63,2.48.63s1.71-.21,2.5-.63c.54-.29,1.01-.69,1.42-1.19.41.5.88.9,1.42,1.19.79.42,1.62.63,2.48.63s1.71-.21,2.5-.63c.3-.16.58-.36.84-.59.18.13.35.26.55.38.95.56,2.09.84,3.4.84h.74c1.06,0,1.99-.15,2.79-.45.79-.29,1.54-.75,2.25-1.36.35.31.71.59,1.09.85.68.46,1.45.84,2.32,1.14s1.89.5,3.05.61,2.53.12,4.11.03c.34-.8.62-1.69.83-2.65s.31-1.89.31-2.78c0-1.12-.13-2.13-.4-3.04-.27-.91-.65-1.69-1.15-2.35h0ZM116.33,89.93c.3-.36.6-.68.9-.96.43-.41.85-.72,1.25-.94s.77-.32,1.1-.32c.45,0,.8.2,1.07.6s.4,1.04.4,1.9c0,.17,0,.33-.02.5h-.85c-1.07,0-1.99-.11-2.74-.31-.41-.11-.78-.27-1.11-.47Z"/>
          <path class="cls-1" d="M5.38,111.13c.52,0,.95-.16,1.29-.49.34-.33.5-.75.5-1.27s-.17-.97-.5-1.31c-.34-.34-.76-.5-1.29-.5s-.97.17-1.31.5c-.34.34-.5.77-.5,1.31s.17.95.5,1.27c.34.33.77.49,1.31.49Z"/>
          <path class="cls-1" d="M10.73,110.64c.34-.33.5-.75.5-1.27s-.17-.97-.5-1.31-.76-.5-1.29-.5-.97.17-1.31.5-.5.77-.5,1.31.17.95.5,1.27c.34.33.77.49,1.31.49s.95-.16,1.29-.49Z"/>
          <path class="cls-1" d="M30.57,129.22c-.34-.34-.77-.51-1.3-.51s-.95.17-1.29.51c-.34.34-.5.77-.5,1.3s.17.95.5,1.27c.34.33.76.49,1.29.49s.95-.16,1.3-.49c.34-.33.51-.75.51-1.27s-.17-.95-.51-1.3Z"/>
          <path class="cls-1" d="M23.92,129.22c-.34.34-.5.77-.5,1.3s.17.95.5,1.27c.34.33.76.49,1.29.49s.95-.16,1.3-.49c.34-.33.51-.75.51-1.27s-.17-.95-.51-1.3c-.34-.34-.78-.51-1.3-.51s-.95.17-1.29.51Z"/>
          <path class="cls-1" d="M30.86,114.91h-4.31v6.97h-9.92c-.55,0-.98-.06-1.27-.17-.3-.11-.51-.31-.63-.58-.12-.28-.18-.65-.18-1.13v-7.09h-4.31v.75c-1.2.02-2.34.15-3.39.4-1.15.28-2.16.69-3.02,1.23s-1.53,1.23-2.01,2.05-.73,1.77-.73,2.84c0,.94.18,1.76.54,2.47.36.71.85,1.3,1.48,1.77.63.47,1.33.82,2.12,1.05s1.61.35,2.46.35,1.67-.11,2.51-.32c.57-.15,1.12-.34,1.64-.59.4.46.86.85,1.39,1.17.95.56,2.09.84,3.4.84h14.24v-12h-.01ZM9.1,121.5c-.45.13-.94.19-1.46.19s-.95-.06-1.29-.18-.58-.29-.73-.51-.22-.48-.22-.78c0-.36.1-.69.31-.98.21-.3.53-.55.96-.77.43-.22.97-.38,1.62-.49.56-.1,1.21-.15,1.93-.16v2.21c0,.35.02.69.05,1.01-.38.2-.78.36-1.18.47h0Z"/>
          <path class="cls-1" d="M45.41,126.92c0-2.34-.44-4.45-1.26-6.33-.83-1.88-1.99-3.45-3.5-4.72-1.51-1.27-3.29-2.14-5.36-2.62l-.92,4.65c1.45.36,2.67.95,3.67,1.77.76.62,1.38,1.36,1.86,2.21h-7.02v5.03h12.54-.01Z"/>
          <path class="cls-1" d="M98.31,125.1c.41.5.88.9,1.42,1.19.79.42,1.62.63,2.48.63s1.71-.21,2.5-.63c.3-.16.58-.36.84-.59.18.13.35.26.55.38.95.56,2.09.84,3.4.84h8.43v-20.14h-4.31v15.11h-4.11c-.55,0-.98-.06-1.27-.17-.3-.11-.51-.31-.63-.58-.12-.28-.18-.65-.18-1.13v-5.1h-4.31v5.1c0,.69-.19,1.2-.57,1.53-.38.34-.81.5-1.29.5s-.89-.17-1.29-.51c-.16-.14-.27-.31-.37-.5v-5h-4.31v3.98c0,.69-.19,1.2-.57,1.53-.38.34-.81.5-1.29.5s-.89-.17-1.29-.51c-.22-.19-.38-.45-.47-.74.02-.25.04-.51.04-.78v-2.91h-4.31v2.91c0,.48-.06.85-.18,1.13s-.33.47-.63.58c-.3.11-.72.17-1.27.17h-10.2c.21-.27.4-.54.57-.83.39-.67.58-1.36.58-2.08,0-.86-.29-1.62-.87-2.26s-1.39-1.14-2.43-1.5-2.24-.54-3.61-.54c-.8,0-1.54.06-2.21.18s-1.3.27-1.88.45l-2.17,3.53c.31,1.11.75,2.12,1.33,3.04h-5.36v-6.17c-.69-.3-1.47-.58-2.35-.85-.88-.27-1.78-.4-2.7-.4s-1.82.16-2.65.47-1.55.75-2.18,1.32-1.11,1.23-1.46,1.99c-.35.76-.53,1.59-.53,2.5,0,1.12.28,2.15.84,3.08.56.94,1.35,1.69,2.37,2.25s2.22.84,3.61.84h.74v.04c0,.48-.2.86-.59,1.14-.4.28-1.14.42-2.25.42h-3.69v5.03h3.69c1.45,0,2.7-.27,3.78-.8s1.9-1.3,2.49-2.29c.59-.99.88-2.16.88-3.5v-.04h5.48c.67,0,1.42-.1,2.25-.29.75-.18,1.52-.42,2.31-.72.01,0,.02.01.04.02,1.51.66,3.21.99,5.09.99h11.09c1.31,0,2.44-.28,3.4-.84.59-.35,1.09-.8,1.51-1.33.46.67,1.02,1.19,1.68,1.54.79.42,1.62.63,2.48.63s1.71-.21,2.5-.63c.54-.29,1.01-.69,1.42-1.19h-.01ZM54.02,122.4c-.57,0-1.04-.09-1.41-.26-.37-.17-.65-.38-.83-.64-.18-.25-.27-.5-.27-.74,0-.27.1-.54.3-.82s.49-.51.86-.69c.37-.19.82-.28,1.34-.28.24,0,.48.02.74.07v3.35h-.74.01ZM67.4,119.32c.46-.09.95-.13,1.45-.13.61,0,1.15.06,1.61.17s.82.25,1.08.41.39.33.39.49c0,.13-.09.28-.26.42-.17.15-.4.29-.69.44-.29.14-.61.27-.97.39-.23.08-.47.14-.71.2-.29-.09-.57-.21-.83-.36-.61-.36-1.11-.88-1.51-1.53-.07-.11-.12-.23-.18-.34.2-.06.41-.11.62-.15h0Z"/>
          <rect class="cls-1" x="120.6" y="106.78" width="4.31" height="20.14"/>
        </g>
        <g>
          <path class="cls-1" d="M266.41,108.72c-.15-.41-.3-.88-.46-1.38-.16-.51-.31-1.01-.46-1.5s-.29-.94-.42-1.34h-.24c-.13.51-.31,1.1-.52,1.78s-.43,1.34-.64,1.96c-.21.63-.39,1.14-.52,1.54l-2.45,6.77h8.54l-2.45-6.77c-.11-.29-.23-.65-.38-1.06Z"/>
          <path class="cls-1" d="M236.63,104.65c-.57-.32-1.3-.48-2.18-.48h-7.34v8.14h7.34c1.26,0,2.22-.36,2.91-1.08.68-.72,1.02-1.72,1.02-3.01,0-.88-.15-1.62-.44-2.2-.29-.59-.73-1.04-1.3-1.36h-.01Z"/>
          <path class="cls-1" d="M394.64,114.93l-16.67-39.94-22.07-7.07,22.03-21.94-33.22-33.2-46.43,29.78,2.44-21.67L255.73,0l-106.85,42.54,41.14,125.24h168.19l20.89-20.94-19.74-19.74,35.28-12.16h0ZM267.23,85.37c0-.23.07-.42.22-.57s.34-.22.57-.22h1.18c.53,0,.93-.1,1.21-.3.27-.2.47-.48.57-.83.11-.35.16-.75.16-1.19v-21.54c0-.23.08-.42.24-.57s.34-.22.56-.22h3.94c.23,0,.42.07.57.22s.22.34.22.57v21.67c0,1.38-.27,2.54-.81,3.48s-1.32,1.66-2.33,2.14c-1.02.49-2.26.73-3.72.73h-1.78c-.23,0-.42-.08-.57-.24-.15-.16-.22-.34-.22-.56v-2.57h-.01ZM207.62,123.57c-1.02,1.28-2.41,2.22-4.17,2.81s-3.78.88-6.05.88c-1.6,0-3.13-.16-4.57-.48s-2.72-.84-3.83-1.54c-1.11-.71-1.98-1.6-2.61-2.69-.63-1.08-.94-2.4-.94-3.95v-.42c0-.15,0-.26.04-.34h5.93c-.03.08-.04.19-.04.32v.36c0,.86.23,1.58.7,2.16.47.59,1.16,1.03,2.06,1.32.91.29,1.96.44,3.17.44.77,0,1.46-.05,2.06-.14.6-.09,1.14-.23,1.6-.4.47-.17.85-.38,1.16-.62.31-.24.53-.52.68-.84s.22-.68.22-1.08c0-.72-.23-1.31-.7-1.76-.47-.45-1.11-.84-1.92-1.16-.82-.32-1.73-.61-2.75-.88s-2.06-.54-3.13-.82-2.11-.63-3.13-1.04-1.92-.92-2.73-1.5c-.8-.59-1.44-1.34-1.92-2.24-.48-.91-.72-2-.72-3.29,0-1.36.29-2.54.86-3.53s1.38-1.8,2.43-2.45c1.04-.64,2.24-1.12,3.61-1.42,1.36-.31,2.85-.46,4.45-.46,1.5,0,2.91.15,4.25.46s2.51.8,3.53,1.46c1.02.67,1.81,1.51,2.39,2.53.57,1.02.86,2.22.86,3.61v.48h-5.81v-.32c0-.72-.21-1.34-.64-1.84-.43-.51-1.03-.91-1.8-1.2-.78-.29-1.68-.44-2.73-.44-1.12,0-2.08.11-2.87.32s-1.39.53-1.8.94-.62.9-.62,1.46c0,.64.23,1.17.7,1.58s1.11.78,1.92,1.08c.81.31,1.73.58,2.75.82s2.06.51,3.13.8,2.11.64,3.13,1.04,1.92.9,2.73,1.5c.8.6,1.44,1.34,1.92,2.22.48.88.72,1.94.72,3.17,0,2.11-.51,3.81-1.52,5.09h0ZM216.31,78.1c-.91,1.88-2.6,2.78-5.05,2.72-1.03-.03-2.75-.21-3.45-.73-.24-.15-.48-.39-.76-.67-.03,1.78-.3,3.33-.91,4.63-.67,1.48-1.63,2.6-2.9,3.39-.12.06-.21.12-.33.18-1.24.67-2.69,1.03-4.42,1.09-.94,0-1.75.03-2.45.03s-1.51-.03-2.42-.03c-1.97-.09-3.6-.51-4.9-1.27-1.27-.76-2.24-1.85-2.87-3.27-.6-1.42-.94-3.18-.94-5.26l-.06-9.89c0-.24.06-.42.21-.57.18-.15.36-.21.57-.21h3.81c.48,0,.85.36.85.82v9.71c0,.91.15,1.66.42,2.27.3.61.76,1.06,1.36,1.36.61.3,1.42.48,2.42.48.6.06.36.09.85.09h1.45c.48,0,.15-.03.76-.09,1.42-.03,2.48-.39,3.15-1.12.67-.7,1-1.75,1-3.15v-13.31l.03.06v-.06h4.57c.06,0,.12,0,.18.03.03,0,.06,0,.09.03.12.03.21.09.3.18.06.09.15.18.18.27.03.06.03.09.03.12.03.06.03.09.03.15v7.5c0,.73.09,1.3.33,1.75.21.42.51.73.88.94.36.18.76.27,1.15.27.42,0,.82-.09,1.18-.27.36-.21.67-.51.91-.94.21-.45.33-1.03.33-1.75v-8.83c0-.21.09-.39.24-.54.12-.15.33-.24.54-.24h3.69c.24,0,.42.09.57.24.15.15.24.33.24.54v8.83c0,.73.09,1.3.33,1.75.21.42.51.73.88.94.36.18.76.27,1.12.27.48,0,.88-.09,1.24-.27.36-.21.64-.51.88-.94.21-.45.3-1.03.3-1.75v-10.25c0-.21.09-.39.24-.54.15-.18.36-.24.57-.24h3.69c.24,0,.42.06.57.24.15.15.24.33.24.54v10.46c0,.45-.03.88-.09,1.3h29.97c1.39,0,2.42-.33,3.12-1,.67-.67,1.03-1.57,1.03-2.78s-.36-2.12-1.03-2.78c-.7-.67-1.72-1-3.12-1h-23.95c-.24,0-.42-.09-.57-.24-.15-.18-.24-.36-.24-.57v-4.11c0-.21.09-.39.24-.57l8.98-8.38c.09-.12.24-.24.45-.36.18-.12.42-.15.76-.09l4.29.79c.18,0,.33.12.42.27.12.15.15.3.12.48-.03.15-.09.27-.18.36l-6.38,6.71h16.09c2.03,0,3.69.36,4.99,1.18,1.3.76,2.27,1.88,2.87,3.3.63,1.42.94,3.08.94,4.99s-.3,3.6-.94,5.02c-.61,1.42-1.57,2.54-2.87,3.33s-2.96,1.18-4.99,1.18h-30.12c-1.81,0-2.63-.51-2.69-.76-.91.51-1.88.76-2.99.76s-2.06-.24-2.96-.76c-.91-.51-1.6-1.18-2.09-1.97h.02ZM243.36,112.93c-.71,1.35-1.74,2.4-3.11,3.15-1.36.75-3.03,1.12-5.01,1.12h-8.14v9.58h-5.97v-27.5h14.31c1.98,0,3.63.37,4.95,1.1,1.32.74,2.33,1.76,3.01,3.09.68,1.32,1.02,2.89,1.02,4.71s-.35,3.4-1.06,4.75ZM272.93,126.78l-1.96-5.41h-11.99l-1.96,5.41h-6.17l10.58-27.5h7.38l10.58,27.5h-6.46ZM308.36,126.78l-4.85-10.02h-7.66v10.02h-5.97v-27.5h15.07c2.03,0,3.72.36,5.07,1.08s2.36,1.73,3.03,3.03c.67,1.3,1,2.79,1,4.47,0,1.79-.4,3.37-1.2,4.75-.8,1.38-1.96,2.43-3.49,3.15l5.61,11.02h-6.61ZM298.56,88.85v-2.86c0-.21.07-.4.22-.56.15-.16.34-.24.57-.24h3.81c.21,0,.4.08.56.24.16.16.24.34.24.56v2.86c0,.23-.08.42-.24.57s-.34.22-.56.22h-3.81c-.23,0-.42-.07-.57-.22s-.22-.34-.22-.57ZM317.14,80.82c-.7,0-1.48,0-2.42-.03-1.97-.09-3.57-.51-4.87-1.24-.42-.24-.82-.54-1.18-.91-.33.33-.73.64-1.12.88-.12.06-.21.12-.33.18-1.24.67-2.69,1.03-4.42,1.09-.94.03-1.75.03-2.45.03s-9.1,0-10.01-.03c-1.97-.09-3.6-.51-4.9-1.24-1.27-.76-2.24-1.87-2.87-3.3-.6-1.42-.94-3.18-.94-5.26l-.06-27.64c0-.24.06-.42.21-.57.18-.15.36-.21.57-.21h3.69c.54,0,.97.42.97.97v27.31c0,.91.15,1.66.42,2.27.27.6.73,1.06,1.36,1.36.6.33,1.42.48,2.42.51.6.03.36.06.85.06.48.03,8.56.03,9.04,0,.48,0,.15-.03.76-.06,1.42-.06,2.48-.42,3.15-1.15.67-.7,1-1.75,1-3.15l-.06-8.23v-2.15h4.66c.06,0,.09,0,.15.03.03,0,.06,0,.12.03.04.02.06.03.06.03.09.03.15.06.21.12v.03c.09.09.15.15.18.27.03.06.03.09.03.12.03.06.03.09.03.15v9.74c0,.91.15,1.66.45,2.27.27.6.73,1.06,1.33,1.36.63.33,1.42.48,2.42.51.6.03.36.06.85.06.48.03,1,.03,1.45,0,.51,0,.18-.03.76-.06,1.45-.06,2.51-.42,3.18-1.15.67-.7,1-1.75,1-3.15v-5.38h4.57c.06,0,.12,0,.18.03.03,0,.06,0,.09.03.09.03.18.06.24.15l.03.03h.03c.09.06.15.18.18.27,0,.06,0,.09.03.12v7.65c0,.73.12,1.3.33,1.75.24.42.51.73.91.94.36.18.76.27,1.15.27.42,0,.82-.09,1.18-.27.36-.21.67-.51.88-.94.24-.45.36-1.03.36-1.75v-8.83c0-.21.06-.39.21-.54s.33-.24.57-.24h3.69c.24,0,.42.09.57.24s.21.33.21.54v8.83c0,.73.12,1.3.33,1.75.24.42.51.73.91.94.36.18.73.27,1.12.27.45,0,.88-.09,1.24-.27.36-.21.63-.51.85-.94.21-.45.33-1.03.33-1.75v-10.25c0-.21.06-.39.24-.54.15-.18.33-.24.57-.24h3.69c.24,0,.42.06.57.24.15.15.21.33.21.54v10.46c0,1.63-.27,2.96-.79,3.99-.51,1.03-1.24,1.78-2.12,2.27-.88.51-1.88.76-2.96.76s-2.09-.24-2.96-.76c-.91-.51-1.6-1.18-2.09-1.97-.91,1.88-2.6,2.78-5.05,2.72-1.03-.03-2.75-.21-3.48-.73-.88-.63-2.18-2.3-2.18-2.3l-1.69,1.27v-.03c-.21.18-.42.33-.67.48-.09.06-.21.12-.33.18-1.21.67-2.69,1.03-4.42,1.09-.94.03-1.72.03-2.45.03l.03.04ZM343.16,126.78l-6.61-10.18h-.2l-6.57,10.18h-6.9l9.9-14.47-8.94-13.03h7.3l5.69,8.7h.2l5.65-8.7h6.85l-8.98,13.03,9.9,14.47h-7.3.01Z"/>
          <path class="cls-1" d="M306.24,104.57c-.56-.29-1.26-.44-2.08-.44h-8.3v7.9h8.3c1.2,0,2.14-.37,2.81-1.1.67-.73,1-1.73,1-2.99,0-.8-.15-1.49-.44-2.06s-.72-1.01-1.28-1.3h-.01Z"/>
        </g>
      </g>
    </g>
  </g>
</svg>