<?xml version="1.0" encoding="UTF-8"?>
<svg id="Layer_2" data-name="Layer 2" xmlns="http://www.w3.org/2000/svg" viewBox="0 0 245.76 167.78">
  <defs>
    <style>
      .cls-1 {
        fill: #fff;
      }
    </style>
  </defs>
  <g id="Layer_2-2" data-name="Layer 2">
    <g>
      <path class="cls-1" d="M117.53,108.72c-.15-.41-.3-.88-.46-1.38-.16-.51-.31-1.01-.46-1.5s-.29-.94-.42-1.34h-.24c-.13.51-.31,1.1-.52,1.78s-.43,1.34-.64,1.96c-.21.63-.39,1.14-.52,1.54l-2.45,6.77h8.54l-2.45-6.77c-.11-.29-.23-.65-.38-1.06Z"/>
      <path class="cls-1" d="M87.75,104.65c-.57-.32-1.3-.48-2.18-.48h-7.34v8.14h7.34c1.26,0,2.22-.36,2.91-1.08.68-.72,1.02-1.72,1.02-3.01,0-.88-.15-1.62-.44-2.2-.29-.59-.73-1.04-1.3-1.36h-.01Z"/>
      <path class="cls-1" d="M245.76,114.93l-16.67-39.94-22.07-7.07,22.03-21.94-33.22-33.2-46.43,29.78,2.44-21.67L106.85,0,0,42.54l41.14,125.24h168.19l20.89-20.94-19.74-19.74,35.28-12.16h0ZM118.35,85.37c0-.23.07-.42.22-.57s.34-.22.57-.22h1.18c.53,0,.93-.1,1.21-.3.27-.2.47-.48.57-.83.11-.35.16-.75.16-1.19v-21.54c0-.23.08-.42.24-.57s.34-.22.56-.22h3.94c.23,0,.42.07.57.22s.22.34.22.57v21.67c0,1.38-.27,2.54-.81,3.48s-1.32,1.66-2.33,2.14c-1.02.49-2.26.73-3.72.73h-1.78c-.23,0-.42-.08-.57-.24-.15-.16-.22-.34-.22-.56v-2.57h-.01ZM58.74,123.57c-1.02,1.28-2.41,2.22-4.17,2.81s-3.78.88-6.05.88c-1.6,0-3.13-.16-4.57-.48s-2.72-.84-3.83-1.54c-1.11-.71-1.98-1.6-2.61-2.69-.63-1.08-.94-2.4-.94-3.95v-.42c0-.15,0-.26.04-.34h5.93c-.03.08-.04.19-.04.32v.36c0,.86.23,1.58.7,2.16.47.59,1.16,1.03,2.06,1.32.91.29,1.96.44,3.17.44.77,0,1.46-.05,2.06-.14.6-.09,1.14-.23,1.6-.4.47-.17.85-.38,1.16-.62.31-.24.53-.52.68-.84s.22-.68.22-1.08c0-.72-.23-1.31-.7-1.76-.47-.45-1.11-.84-1.92-1.16-.82-.32-1.73-.61-2.75-.88s-2.06-.54-3.13-.82-2.11-.63-3.13-1.04-1.92-.92-2.73-1.5c-.8-.59-1.44-1.34-1.92-2.24-.48-.91-.72-2-.72-3.29,0-1.36.29-2.54.86-3.53s1.38-1.8,2.43-2.45c1.04-.64,2.24-1.12,3.61-1.42,1.36-.31,2.85-.46,4.45-.46,1.5,0,2.91.15,4.25.46s2.51.8,3.53,1.46c1.02.67,1.81,1.51,2.39,2.53.57,1.02.86,2.22.86,3.61v.48h-5.81v-.32c0-.72-.21-1.34-.64-1.84-.43-.51-1.03-.91-1.8-1.2-.78-.29-1.68-.44-2.73-.44-1.12,0-2.08.11-2.87.32s-1.39.53-1.8.94-.62.9-.62,1.46c0,.64.23,1.17.7,1.58s1.11.78,1.92,1.08c.81.31,1.73.58,2.75.82s2.06.51,3.13.8,2.11.64,3.13,1.04,1.92.9,2.73,1.5c.8.6,1.44,1.34,1.92,2.22.48.88.72,1.94.72,3.17,0,2.11-.51,3.81-1.52,5.09h0ZM67.43,78.1c-.91,1.88-2.6,2.78-5.05,2.72-1.03-.03-2.75-.21-3.45-.73-.24-.15-.48-.39-.76-.67-.03,1.78-.3,3.33-.91,4.63-.67,1.48-1.63,2.6-2.9,3.39-.12.06-.21.12-.33.18-1.24.67-2.69,1.03-4.42,1.09-.94,0-1.75.03-2.45.03s-1.51-.03-2.42-.03c-1.97-.09-3.6-.51-4.9-1.27-1.27-.76-2.24-1.85-2.87-3.27-.6-1.42-.94-3.18-.94-5.26l-.06-9.89c0-.24.06-.42.21-.57.18-.15.36-.21.57-.21h3.81c.48,0,.85.36.85.82v9.71c0,.91.15,1.66.42,2.27.3.61.76,1.06,1.36,1.36.61.3,1.42.48,2.42.48.6.06.36.09.85.09h1.45c.48,0,.15-.03.76-.09,1.42-.03,2.48-.39,3.15-1.12.67-.7,1-1.75,1-3.15v-13.31l.03.06v-.06h4.57c.06,0,.12,0,.18.03.03,0,.06,0,.09.03.12.03.21.09.3.18.06.09.15.18.18.27.03.06.03.09.03.12.03.06.03.09.03.15v7.5c0,.73.09,1.3.33,1.75.21.42.51.73.88.94.36.18.76.27,1.15.27.42,0,.82-.09,1.18-.27.36-.21.67-.51.91-.94.21-.45.33-1.03.33-1.75v-8.83c0-.21.09-.39.24-.54.12-.15.33-.24.54-.24h3.69c.24,0,.42.09.57.24.15.15.24.33.24.54v8.83c0,.73.09,1.3.33,1.75.21.42.51.73.88.94.36.18.76.27,1.12.27.48,0,.88-.09,1.24-.27.36-.21.64-.51.88-.94.21-.45.3-1.03.3-1.75v-10.25c0-.21.09-.39.24-.54.15-.18.36-.24.57-.24h3.69c.24,0,.42.06.57.24.15.15.24.33.24.54v10.46c0,.45-.03.88-.09,1.3h29.97c1.39,0,2.42-.33,3.12-1,.67-.67,1.03-1.57,1.03-2.78s-.36-2.12-1.03-2.78c-.7-.67-1.72-1-3.12-1h-23.95c-.24,0-.42-.09-.57-.24-.15-.18-.24-.36-.24-.57v-4.11c0-.21.09-.39.24-.57l8.98-8.38c.09-.12.24-.24.45-.36.18-.12.42-.15.76-.09l4.29.79c.18,0,.33.12.42.27.12.15.15.3.12.48-.03.15-.09.27-.18.36l-6.38,6.71h16.09c2.03,0,3.69.36,4.99,1.18,1.3.76,2.27,1.88,2.87,3.3.63,1.42.94,3.08.94,4.99s-.3,3.6-.94,5.02c-.61,1.42-1.57,2.54-2.87,3.33s-2.96,1.18-4.99,1.18h-30.12c-1.81,0-2.63-.51-2.69-.76-.91.51-1.88.76-2.99.76s-2.06-.24-2.96-.76c-.91-.51-1.6-1.18-2.09-1.97h.02ZM94.48,112.93c-.71,1.35-1.74,2.4-3.11,3.15-1.36.75-3.03,1.12-5.01,1.12h-8.14v9.58h-5.97v-27.5h14.31c1.98,0,3.63.37,4.95,1.1,1.32.74,2.33,1.76,3.01,3.09.68,1.32,1.02,2.89,1.02,4.71s-.35,3.4-1.06,4.75ZM124.05,126.78l-1.96-5.41h-11.99l-1.96,5.41h-6.17l10.58-27.5h7.38l10.58,27.5h-6.46ZM159.48,126.78l-4.85-10.02h-7.66v10.02h-5.97v-27.5h15.07c2.03,0,3.72.36,5.07,1.08s2.36,1.73,3.03,3.03c.67,1.3,1,2.79,1,4.47,0,1.79-.4,3.37-1.2,4.75-.8,1.38-1.96,2.43-3.49,3.15l5.61,11.02h-6.61ZM149.68,88.85v-2.86c0-.21.07-.4.22-.56.15-.16.34-.24.57-.24h3.81c.21,0,.4.08.56.24.16.16.24.34.24.56v2.86c0,.23-.08.42-.24.57s-.34.22-.56.22h-3.81c-.23,0-.42-.07-.57-.22s-.22-.34-.22-.57ZM168.26,80.82c-.7,0-1.48,0-2.42-.03-1.97-.09-3.57-.51-4.87-1.24-.42-.24-.82-.54-1.18-.91-.33.33-.73.64-1.12.88-.12.06-.21.12-.33.18-1.24.67-2.69,1.03-4.42,1.09-.94.03-1.75.03-2.45.03s-9.1,0-10.01-.03c-1.97-.09-3.6-.51-4.9-1.24-1.27-.76-2.24-1.87-2.87-3.3-.6-1.42-.94-3.18-.94-5.26l-.06-27.64c0-.24.06-.42.21-.57.18-.15.36-.21.57-.21h3.69c.54,0,.97.42.97.97v27.31c0,.91.15,1.66.42,2.27.27.6.73,1.06,1.36,1.36.6.33,1.42.48,2.42.51.6.03.36.06.85.06.48.03,8.56.03,9.04,0,.48,0,.15-.03.76-.06,1.42-.06,2.48-.42,3.15-1.15.67-.7,1-1.75,1-3.15l-.06-8.23v-2.15h4.66c.06,0,.09,0,.15.03.03,0,.06,0,.12.03.04.02.06.03.06.03.09.03.15.06.21.12v.03c.09.09.15.15.18.27.03.06.03.09.03.12.03.06.03.09.03.15v9.74c0,.91.15,1.66.45,2.27.27.6.73,1.06,1.33,1.36.63.33,1.42.48,2.42.51.6.03.36.06.85.06.48.03,1,.03,1.45,0,.51,0,.18-.03.76-.06,1.45-.06,2.51-.42,3.18-1.15.67-.7,1-1.75,1-3.15v-5.38h4.57c.06,0,.12,0,.18.03.03,0,.06,0,.09.03.09.03.18.06.24.15l.03.03h.03c.09.06.15.18.18.27,0,.06,0,.09.03.12v7.65c0,.73.12,1.3.33,1.75.24.42.51.73.91.94.36.18.76.27,1.15.27.42,0,.82-.09,1.18-.27.36-.21.67-.51.88-.94.24-.45.36-1.03.36-1.75v-8.83c0-.21.06-.39.21-.54s.33-.24.57-.24h3.69c.24,0,.42.09.57.24s.21.33.21.54v8.83c0,.73.12,1.3.33,1.75.24.42.51.73.91.94.36.18.73.27,1.12.27.45,0,.88-.09,1.24-.27.36-.21.63-.51.85-.94.21-.45.33-1.03.33-1.75v-10.25c0-.21.06-.39.24-.54.15-.18.33-.24.57-.24h3.69c.24,0,.42.06.57.24.15.15.21.33.21.54v10.46c0,1.63-.27,2.96-.79,3.99-.51,1.03-1.24,1.78-2.12,2.27-.88.51-1.88.76-2.96.76s-2.09-.24-2.96-.76c-.91-.51-1.6-1.18-2.09-1.97-.91,1.88-2.6,2.78-5.05,2.72-1.03-.03-2.75-.21-3.48-.73-.88-.63-2.18-2.3-2.18-2.3l-1.69,1.27v-.03c-.21.18-.42.33-.67.48-.09.06-.21.12-.33.18-1.21.67-2.69,1.03-4.42,1.09-.94.03-1.72.03-2.45.03l.03.04ZM194.28,126.78l-6.61-10.18h-.2l-6.57,10.18h-6.9l9.9-14.47-8.94-13.03h7.3l5.69,8.7h.2l5.65-8.7h6.85l-8.98,13.03,9.9,14.47h-7.3.01Z"/>
      <path class="cls-1" d="M157.36,104.57c-.56-.29-1.26-.44-2.08-.44h-8.3v7.9h8.3c1.2,0,2.14-.37,2.81-1.1.67-.73,1-1.73,1-2.99,0-.8-.15-1.49-.44-2.06s-.72-1.01-1.28-1.3h-.01Z"/>
    </g>
  </g>
</svg>